M48
; DRILL file {KiCad (5.1.4)-1} date 23-Apr-21 12:42:16 AM
; FORMAT={-:-/ absolute / inch / decimal}
; #@! TF.CreationDate,2021-04-23T00:42:16+10:00
; #@! TF.GenerationSoftware,Kicad,Pcbnew,(5.1.4)-1
; #@! TF.FileFunction,NonPlated,1,2,NPTH
FMAT,2
INCH
T1C0.0310
T2C0.0670
T3C0.1200
T4C0.1570
%
G90
G05
T1
X6.2743Y-3.9471
X6.3243Y-3.9471
X6.3743Y-3.9471
X6.4243Y-3.9471
X6.4743Y-3.9471
X10.2114Y-4.1246
X10.2614Y-4.1246
X10.3114Y-4.1246
X10.3614Y-4.1246
X10.4114Y-4.1246
X8.2429Y-3.9471
X8.2929Y-3.9471
X8.3429Y-3.9471
X8.3929Y-3.9471
X8.4429Y-3.9471
X6.2743Y-4.1146
X6.3243Y-4.1146
X6.3743Y-4.1146
X6.4243Y-4.1146
X6.4743Y-4.1146
X7.6867Y-3.2746
X7.6867Y-3.3246
X7.6867Y-3.3746
X7.6867Y-3.4246
X7.6867Y-3.4746
X7.7704Y-1.6811
X7.7704Y-1.7311
X7.7704Y-1.7811
X7.7704Y-1.8311
X7.7704Y-1.8811
X6.9468Y-1.6811
X6.9468Y-1.7311
X6.9468Y-1.7811
X6.9468Y-1.8311
X6.9468Y-1.8811
X7.7704Y-3.2746
X7.7704Y-3.3246
X7.7704Y-3.3746
X7.7704Y-3.4246
X7.7704Y-3.4746
X7.0305Y-1.6811
X7.0305Y-1.7311
X7.0305Y-1.7811
X7.0305Y-1.8311
X7.0305Y-1.8811
X7.0305Y-3.2746
X7.0305Y-3.3246
X7.0305Y-3.3746
X7.0305Y-3.4246
X7.0305Y-3.4746
X6.9468Y-3.2746
X6.9468Y-3.3246
X6.9468Y-3.3746
X6.9468Y-3.4246
X6.9468Y-3.4746
X10.2114Y-3.9471
X10.2614Y-3.9471
X10.3114Y-3.9471
X10.3614Y-3.9471
X10.4114Y-3.9471
X8.2429Y-4.1146
X8.2929Y-4.1146
X8.3429Y-4.1146
X8.3929Y-4.1146
X8.4429Y-4.1146
X7.6867Y-1.6811
X7.6867Y-1.7311
X7.6867Y-1.7811
X7.6867Y-1.8311
X7.6867Y-1.8811
T2
X8.7178Y-2.0623
X9.1178Y-2.0623
X7.9679Y-2.0623
X8.3679Y-2.0623
X10.3926Y-2.8122
X10.7926Y-2.8122
X8.5178Y-3.5621
X8.9178Y-3.5621
X5.6119Y-2.8122
X6.0119Y-2.8122
X3.7371Y-3.5621
X4.1371Y-3.5621
X8.8928Y-2.8122
X9.2928Y-2.8122
X9.2678Y-3.5621
X9.6678Y-3.5621
X10.2177Y-2.0623
X10.6177Y-2.0623
X4.1246Y-2.8122
X4.5246Y-2.8122
X3.9371Y-2.0623
X4.3371Y-2.0623
X8.1429Y-4.687
X8.5429Y-4.687
X8.1429Y-2.8247
X8.5429Y-2.8247
X5.2369Y-3.5621
X5.6369Y-3.5621
X5.9869Y-3.5621
X6.3869Y-3.5621
X9.6427Y-2.8122
X10.0427Y-2.8122
X3.1746Y-2.0623
X3.5746Y-2.0623
X4.687Y-2.0623
X5.087Y-2.0623
X6.1869Y-2.0623
X6.5869Y-2.0623
X4.487Y-3.5621
X4.887Y-3.5621
X10.9676Y-2.0623
X11.3676Y-2.0623
X3.3746Y-2.8122
X3.7746Y-2.8122
X9.4678Y-2.0623
X9.8678Y-2.0623
X6.3618Y-2.8122
X6.7618Y-2.8122
X4.8745Y-2.8122
X5.2745Y-2.8122
X10.0177Y-3.5621
X10.4177Y-3.5621
X5.4369Y-2.0623
X5.8369Y-2.0623
T3
X6.3729Y-4.412
X10.3129Y-4.412
T4
X3.9371Y-3.5621
X9.0928Y-2.8122
X9.4678Y-3.5621
X10.4177Y-2.0623
X4.3246Y-2.8122
X4.1371Y-2.0623
X6.3729Y-5.012
X8.3429Y-4.687
X10.3129Y-5.012
X8.3429Y-2.8247
X5.4369Y-3.5621
X6.1869Y-3.5621
X9.8427Y-2.8122
X3.3746Y-2.0623
X4.887Y-2.0623
X6.3869Y-2.0623
X4.687Y-3.5621
X11.1676Y-2.0623
X3.5746Y-2.8122
X9.6678Y-2.0623
X6.5618Y-2.8122
X5.0745Y-2.8122
X10.2177Y-3.5621
X5.6369Y-2.0623
X8.9178Y-2.0623
X8.1679Y-2.0623
X10.5926Y-2.8122
X8.7178Y-3.5621
X5.8119Y-2.8122
T0
M30
