G04 #@! TF.GenerationSoftware,KiCad,Pcbnew,(5.1.4)-1*
G04 #@! TF.CreationDate,2021-04-23T00:27:45+10:00*
G04 #@! TF.ProjectId,pain27divided3,7061696e-3237-4646-9976-69646564332e,rev?*
G04 #@! TF.SameCoordinates,Original*
G04 #@! TF.FileFunction,Legend,Top*
G04 #@! TF.FilePolarity,Positive*
%FSLAX46Y46*%
G04 Gerber Fmt 4.6, Leading zero omitted, Abs format (unit mm)*
G04 Created by KiCad (PCBNEW (5.1.4)-1) date 2021-04-23 00:27:45*
%MOMM*%
%LPD*%
G04 APERTURE LIST*
%ADD10C,0.010000*%
%ADD11C,0.120000*%
%ADD12C,0.150000*%
%ADD13C,0.381000*%
%ADD14C,1.187400*%
%ADD15R,2.100000X2.100000*%
%ADD16O,2.100000X2.100000*%
%ADD17C,1.100000*%
%ADD18C,4.800000*%
%ADD19C,2.082800*%
%ADD20O,2.398980X2.398980*%
%ADD21R,2.398980X2.398980*%
%ADD22C,2.686000*%
G04 APERTURE END LIST*
D10*
G36*
X190070184Y-59475432D02*
G01*
X190075689Y-59547608D01*
X190066538Y-59563947D01*
X190045547Y-59550174D01*
X190042282Y-59503333D01*
X190053561Y-59454056D01*
X190070184Y-59475432D01*
X190070184Y-59475432D01*
G37*
X190070184Y-59475432D02*
X190075689Y-59547608D01*
X190066538Y-59563947D01*
X190045547Y-59550174D01*
X190042282Y-59503333D01*
X190053561Y-59454056D01*
X190070184Y-59475432D01*
G36*
X183229637Y-57855152D02*
G01*
X183284972Y-57929432D01*
X183295384Y-57987570D01*
X183270800Y-58044752D01*
X183213734Y-58111214D01*
X183151072Y-58162055D01*
X183109698Y-58172374D01*
X183105408Y-58163521D01*
X183093049Y-57975247D01*
X183121530Y-57868211D01*
X183151726Y-57844399D01*
X183229637Y-57855152D01*
X183229637Y-57855152D01*
G37*
X183229637Y-57855152D02*
X183284972Y-57929432D01*
X183295384Y-57987570D01*
X183270800Y-58044752D01*
X183213734Y-58111214D01*
X183151072Y-58162055D01*
X183109698Y-58172374D01*
X183105408Y-58163521D01*
X183093049Y-57975247D01*
X183121530Y-57868211D01*
X183151726Y-57844399D01*
X183229637Y-57855152D01*
G36*
X183019000Y-58214091D02*
G01*
X182995909Y-58237182D01*
X182972818Y-58214091D01*
X182995909Y-58191000D01*
X183019000Y-58214091D01*
X183019000Y-58214091D01*
G37*
X183019000Y-58214091D02*
X182995909Y-58237182D01*
X182972818Y-58214091D01*
X182995909Y-58191000D01*
X183019000Y-58214091D01*
G36*
X184219727Y-59149509D02*
G01*
X184187889Y-59214740D01*
X184150454Y-59253182D01*
X184094721Y-59280897D01*
X184081182Y-59264491D01*
X184113020Y-59199259D01*
X184150454Y-59160818D01*
X184206188Y-59133103D01*
X184219727Y-59149509D01*
X184219727Y-59149509D01*
G37*
X184219727Y-59149509D02*
X184187889Y-59214740D01*
X184150454Y-59253182D01*
X184094721Y-59280897D01*
X184081182Y-59264491D01*
X184113020Y-59199259D01*
X184150454Y-59160818D01*
X184206188Y-59133103D01*
X184219727Y-59149509D01*
G36*
X192001169Y-55475958D02*
G01*
X192031880Y-55636746D01*
X192074295Y-55773534D01*
X192098122Y-55822557D01*
X192148541Y-55933613D01*
X192163000Y-56009593D01*
X192190420Y-56111054D01*
X192216256Y-56147602D01*
X192295131Y-56173852D01*
X192379376Y-56140283D01*
X192430217Y-56068206D01*
X192431900Y-56029086D01*
X192439999Y-55934479D01*
X192477333Y-55810742D01*
X192480686Y-55802513D01*
X192489972Y-55759352D01*
X193927427Y-55759352D01*
X193931765Y-55864279D01*
X193939378Y-55879284D01*
X194009753Y-55925778D01*
X194087981Y-55901972D01*
X194120786Y-55855041D01*
X194143694Y-55749674D01*
X194148818Y-55674637D01*
X194132443Y-55596634D01*
X194069184Y-55588386D01*
X194055949Y-55591569D01*
X193975031Y-55653124D01*
X193927427Y-55759352D01*
X192489972Y-55759352D01*
X192518200Y-55628158D01*
X192500044Y-55525422D01*
X192469962Y-55428381D01*
X192459759Y-55355828D01*
X192479985Y-55304204D01*
X192541188Y-55269946D01*
X192653916Y-55249494D01*
X192828718Y-55239287D01*
X193076141Y-55235764D01*
X193359235Y-55235364D01*
X194225424Y-55235364D01*
X194221758Y-55339273D01*
X194232590Y-55408478D01*
X194288533Y-55439210D01*
X194391332Y-55447090D01*
X194512116Y-55457168D01*
X194588675Y-55477040D01*
X194595302Y-55481726D01*
X194606611Y-55529873D01*
X194539028Y-55560442D01*
X194407363Y-55567696D01*
X194277029Y-55586014D01*
X194219017Y-55647240D01*
X194241517Y-55742316D01*
X194244747Y-55747551D01*
X194285033Y-55887947D01*
X194239059Y-56028301D01*
X194171909Y-56104184D01*
X194091240Y-56200075D01*
X194056484Y-56292446D01*
X194056454Y-56294514D01*
X194032584Y-56391196D01*
X193967668Y-56408434D01*
X193871750Y-56343731D01*
X193869084Y-56341084D01*
X193802925Y-56249932D01*
X193792191Y-56141226D01*
X193801862Y-56076645D01*
X193817763Y-55971958D01*
X193806202Y-55941671D01*
X193761043Y-55970315D01*
X193760007Y-55971173D01*
X193699165Y-56052092D01*
X193687000Y-56099525D01*
X193651247Y-56178696D01*
X193567378Y-56265920D01*
X193470473Y-56329137D01*
X193421454Y-56342191D01*
X193367734Y-56371162D01*
X193363727Y-56387107D01*
X193404742Y-56411741D01*
X193507922Y-56422503D01*
X193560000Y-56421743D01*
X193690087Y-56430012D01*
X193757832Y-56474439D01*
X193763370Y-56562899D01*
X193706837Y-56703268D01*
X193588371Y-56903420D01*
X193568859Y-56933581D01*
X193461611Y-57093931D01*
X193386387Y-57189608D01*
X193327092Y-57234777D01*
X193267630Y-57243601D01*
X193223972Y-57237103D01*
X193142730Y-57227602D01*
X193099411Y-57256189D01*
X193074485Y-57344475D01*
X193063235Y-57414973D01*
X193059149Y-57576582D01*
X193083263Y-57766056D01*
X193128310Y-57952607D01*
X193187026Y-58105450D01*
X193245894Y-58189026D01*
X193306852Y-58273944D01*
X193335563Y-58348864D01*
X193393535Y-58453415D01*
X193478639Y-58532761D01*
X193569267Y-58628947D01*
X193594636Y-58715329D01*
X193615139Y-58816224D01*
X193667620Y-58958281D01*
X193709897Y-59049082D01*
X193774178Y-59185054D01*
X193816105Y-59291517D01*
X193825352Y-59330888D01*
X193863824Y-59387267D01*
X193917909Y-59414818D01*
X193989827Y-59479413D01*
X194009462Y-59588533D01*
X193970852Y-59705640D01*
X193928513Y-59739209D01*
X193873541Y-59694095D01*
X193799068Y-59634430D01*
X193758946Y-59622636D01*
X193692050Y-59590585D01*
X193608774Y-59513512D01*
X193608669Y-59513392D01*
X193497622Y-59430071D01*
X193355584Y-59374695D01*
X193343914Y-59372298D01*
X193218622Y-59329475D01*
X193151833Y-59267000D01*
X193150111Y-59262179D01*
X193106809Y-59151935D01*
X193083265Y-59103717D01*
X193049325Y-58994156D01*
X193040454Y-58906302D01*
X193006712Y-58798044D01*
X192925000Y-58745182D01*
X192830350Y-58674055D01*
X192809545Y-58587414D01*
X192791351Y-58488239D01*
X192759887Y-58442851D01*
X192749875Y-58392609D01*
X192806069Y-58322872D01*
X192886447Y-58230272D01*
X192883162Y-58169875D01*
X192793259Y-58128977D01*
X192759087Y-58120788D01*
X192609523Y-58041309D01*
X192523616Y-57932391D01*
X192455065Y-57832445D01*
X192399385Y-57778455D01*
X192389347Y-57775364D01*
X192351855Y-57738152D01*
X192347727Y-57709744D01*
X192317329Y-57651091D01*
X192235128Y-57543769D01*
X192114618Y-57404434D01*
X192005126Y-57286770D01*
X191882992Y-57151909D01*
X192855727Y-57151909D01*
X192878818Y-57175000D01*
X192901909Y-57151909D01*
X192878818Y-57128818D01*
X192855727Y-57151909D01*
X191882992Y-57151909D01*
X191816746Y-57078760D01*
X191696417Y-56917329D01*
X191687219Y-56897909D01*
X193040454Y-56897909D01*
X193056211Y-56942890D01*
X193060820Y-56944091D01*
X193100248Y-56911730D01*
X193109727Y-56897909D01*
X193106065Y-56855353D01*
X193089362Y-56851727D01*
X193042334Y-56885251D01*
X193040454Y-56897909D01*
X191687219Y-56897909D01*
X191638012Y-56794026D01*
X191633432Y-56774331D01*
X191619596Y-56631085D01*
X191650835Y-56563150D01*
X191732906Y-56562261D01*
X191772089Y-56575258D01*
X191855353Y-56595743D01*
X191885909Y-56583618D01*
X191847469Y-56545033D01*
X191754256Y-56499054D01*
X191747363Y-56496409D01*
X191650530Y-56467239D01*
X191612775Y-56482386D01*
X191608818Y-56509375D01*
X191592105Y-56572046D01*
X191553823Y-56563198D01*
X191511757Y-56494872D01*
X191492103Y-56430351D01*
X191437084Y-56308808D01*
X191338521Y-56181833D01*
X191303706Y-56148476D01*
X191208864Y-56054194D01*
X191153161Y-55977533D01*
X191147000Y-55957261D01*
X191115959Y-55899073D01*
X191035181Y-55801373D01*
X190939182Y-55702234D01*
X190830623Y-55591204D01*
X190755418Y-55503159D01*
X190731363Y-55461565D01*
X190694251Y-55417752D01*
X190601160Y-55354792D01*
X190558182Y-55330871D01*
X190385000Y-55239446D01*
X190558182Y-55237405D01*
X190669503Y-55245789D01*
X190728514Y-55269136D01*
X190731363Y-55276539D01*
X190770090Y-55319034D01*
X190835273Y-55345857D01*
X190920146Y-55397468D01*
X191026903Y-55499921D01*
X191095920Y-55583405D01*
X191211835Y-55718368D01*
X191295274Y-55768453D01*
X191348614Y-55734317D01*
X191369575Y-55658928D01*
X191357059Y-55576286D01*
X191308922Y-55558636D01*
X191257096Y-55534884D01*
X191244997Y-55450044D01*
X191247983Y-55408545D01*
X191262454Y-55258454D01*
X191615774Y-55245049D01*
X191969094Y-55231645D01*
X192001169Y-55475958D01*
X192001169Y-55475958D01*
G37*
X192001169Y-55475958D02*
X192031880Y-55636746D01*
X192074295Y-55773534D01*
X192098122Y-55822557D01*
X192148541Y-55933613D01*
X192163000Y-56009593D01*
X192190420Y-56111054D01*
X192216256Y-56147602D01*
X192295131Y-56173852D01*
X192379376Y-56140283D01*
X192430217Y-56068206D01*
X192431900Y-56029086D01*
X192439999Y-55934479D01*
X192477333Y-55810742D01*
X192480686Y-55802513D01*
X192489972Y-55759352D01*
X193927427Y-55759352D01*
X193931765Y-55864279D01*
X193939378Y-55879284D01*
X194009753Y-55925778D01*
X194087981Y-55901972D01*
X194120786Y-55855041D01*
X194143694Y-55749674D01*
X194148818Y-55674637D01*
X194132443Y-55596634D01*
X194069184Y-55588386D01*
X194055949Y-55591569D01*
X193975031Y-55653124D01*
X193927427Y-55759352D01*
X192489972Y-55759352D01*
X192518200Y-55628158D01*
X192500044Y-55525422D01*
X192469962Y-55428381D01*
X192459759Y-55355828D01*
X192479985Y-55304204D01*
X192541188Y-55269946D01*
X192653916Y-55249494D01*
X192828718Y-55239287D01*
X193076141Y-55235764D01*
X193359235Y-55235364D01*
X194225424Y-55235364D01*
X194221758Y-55339273D01*
X194232590Y-55408478D01*
X194288533Y-55439210D01*
X194391332Y-55447090D01*
X194512116Y-55457168D01*
X194588675Y-55477040D01*
X194595302Y-55481726D01*
X194606611Y-55529873D01*
X194539028Y-55560442D01*
X194407363Y-55567696D01*
X194277029Y-55586014D01*
X194219017Y-55647240D01*
X194241517Y-55742316D01*
X194244747Y-55747551D01*
X194285033Y-55887947D01*
X194239059Y-56028301D01*
X194171909Y-56104184D01*
X194091240Y-56200075D01*
X194056484Y-56292446D01*
X194056454Y-56294514D01*
X194032584Y-56391196D01*
X193967668Y-56408434D01*
X193871750Y-56343731D01*
X193869084Y-56341084D01*
X193802925Y-56249932D01*
X193792191Y-56141226D01*
X193801862Y-56076645D01*
X193817763Y-55971958D01*
X193806202Y-55941671D01*
X193761043Y-55970315D01*
X193760007Y-55971173D01*
X193699165Y-56052092D01*
X193687000Y-56099525D01*
X193651247Y-56178696D01*
X193567378Y-56265920D01*
X193470473Y-56329137D01*
X193421454Y-56342191D01*
X193367734Y-56371162D01*
X193363727Y-56387107D01*
X193404742Y-56411741D01*
X193507922Y-56422503D01*
X193560000Y-56421743D01*
X193690087Y-56430012D01*
X193757832Y-56474439D01*
X193763370Y-56562899D01*
X193706837Y-56703268D01*
X193588371Y-56903420D01*
X193568859Y-56933581D01*
X193461611Y-57093931D01*
X193386387Y-57189608D01*
X193327092Y-57234777D01*
X193267630Y-57243601D01*
X193223972Y-57237103D01*
X193142730Y-57227602D01*
X193099411Y-57256189D01*
X193074485Y-57344475D01*
X193063235Y-57414973D01*
X193059149Y-57576582D01*
X193083263Y-57766056D01*
X193128310Y-57952607D01*
X193187026Y-58105450D01*
X193245894Y-58189026D01*
X193306852Y-58273944D01*
X193335563Y-58348864D01*
X193393535Y-58453415D01*
X193478639Y-58532761D01*
X193569267Y-58628947D01*
X193594636Y-58715329D01*
X193615139Y-58816224D01*
X193667620Y-58958281D01*
X193709897Y-59049082D01*
X193774178Y-59185054D01*
X193816105Y-59291517D01*
X193825352Y-59330888D01*
X193863824Y-59387267D01*
X193917909Y-59414818D01*
X193989827Y-59479413D01*
X194009462Y-59588533D01*
X193970852Y-59705640D01*
X193928513Y-59739209D01*
X193873541Y-59694095D01*
X193799068Y-59634430D01*
X193758946Y-59622636D01*
X193692050Y-59590585D01*
X193608774Y-59513512D01*
X193608669Y-59513392D01*
X193497622Y-59430071D01*
X193355584Y-59374695D01*
X193343914Y-59372298D01*
X193218622Y-59329475D01*
X193151833Y-59267000D01*
X193150111Y-59262179D01*
X193106809Y-59151935D01*
X193083265Y-59103717D01*
X193049325Y-58994156D01*
X193040454Y-58906302D01*
X193006712Y-58798044D01*
X192925000Y-58745182D01*
X192830350Y-58674055D01*
X192809545Y-58587414D01*
X192791351Y-58488239D01*
X192759887Y-58442851D01*
X192749875Y-58392609D01*
X192806069Y-58322872D01*
X192886447Y-58230272D01*
X192883162Y-58169875D01*
X192793259Y-58128977D01*
X192759087Y-58120788D01*
X192609523Y-58041309D01*
X192523616Y-57932391D01*
X192455065Y-57832445D01*
X192399385Y-57778455D01*
X192389347Y-57775364D01*
X192351855Y-57738152D01*
X192347727Y-57709744D01*
X192317329Y-57651091D01*
X192235128Y-57543769D01*
X192114618Y-57404434D01*
X192005126Y-57286770D01*
X191882992Y-57151909D01*
X192855727Y-57151909D01*
X192878818Y-57175000D01*
X192901909Y-57151909D01*
X192878818Y-57128818D01*
X192855727Y-57151909D01*
X191882992Y-57151909D01*
X191816746Y-57078760D01*
X191696417Y-56917329D01*
X191687219Y-56897909D01*
X193040454Y-56897909D01*
X193056211Y-56942890D01*
X193060820Y-56944091D01*
X193100248Y-56911730D01*
X193109727Y-56897909D01*
X193106065Y-56855353D01*
X193089362Y-56851727D01*
X193042334Y-56885251D01*
X193040454Y-56897909D01*
X191687219Y-56897909D01*
X191638012Y-56794026D01*
X191633432Y-56774331D01*
X191619596Y-56631085D01*
X191650835Y-56563150D01*
X191732906Y-56562261D01*
X191772089Y-56575258D01*
X191855353Y-56595743D01*
X191885909Y-56583618D01*
X191847469Y-56545033D01*
X191754256Y-56499054D01*
X191747363Y-56496409D01*
X191650530Y-56467239D01*
X191612775Y-56482386D01*
X191608818Y-56509375D01*
X191592105Y-56572046D01*
X191553823Y-56563198D01*
X191511757Y-56494872D01*
X191492103Y-56430351D01*
X191437084Y-56308808D01*
X191338521Y-56181833D01*
X191303706Y-56148476D01*
X191208864Y-56054194D01*
X191153161Y-55977533D01*
X191147000Y-55957261D01*
X191115959Y-55899073D01*
X191035181Y-55801373D01*
X190939182Y-55702234D01*
X190830623Y-55591204D01*
X190755418Y-55503159D01*
X190731363Y-55461565D01*
X190694251Y-55417752D01*
X190601160Y-55354792D01*
X190558182Y-55330871D01*
X190385000Y-55239446D01*
X190558182Y-55237405D01*
X190669503Y-55245789D01*
X190728514Y-55269136D01*
X190731363Y-55276539D01*
X190770090Y-55319034D01*
X190835273Y-55345857D01*
X190920146Y-55397468D01*
X191026903Y-55499921D01*
X191095920Y-55583405D01*
X191211835Y-55718368D01*
X191295274Y-55768453D01*
X191348614Y-55734317D01*
X191369575Y-55658928D01*
X191357059Y-55576286D01*
X191308922Y-55558636D01*
X191257096Y-55534884D01*
X191244997Y-55450044D01*
X191247983Y-55408545D01*
X191262454Y-55258454D01*
X191615774Y-55245049D01*
X191969094Y-55231645D01*
X192001169Y-55475958D01*
G36*
X193989836Y-59837863D02*
G01*
X194038964Y-59894171D01*
X194036018Y-59932555D01*
X194012529Y-60018856D01*
X194010273Y-60042050D01*
X193975017Y-60083247D01*
X193964091Y-60084454D01*
X193931534Y-60044357D01*
X193917909Y-59947889D01*
X193917909Y-59947358D01*
X193929206Y-59852641D01*
X193970217Y-59832047D01*
X193989836Y-59837863D01*
X193989836Y-59837863D01*
G37*
X193989836Y-59837863D02*
X194038964Y-59894171D01*
X194036018Y-59932555D01*
X194012529Y-60018856D01*
X194010273Y-60042050D01*
X193975017Y-60083247D01*
X193964091Y-60084454D01*
X193931534Y-60044357D01*
X193917909Y-59947889D01*
X193917909Y-59947358D01*
X193929206Y-59852641D01*
X193970217Y-59832047D01*
X193989836Y-59837863D01*
G36*
X183195912Y-60017028D02*
G01*
X183203727Y-60038273D01*
X183166322Y-60079244D01*
X183134454Y-60084454D01*
X183072997Y-60059518D01*
X183065182Y-60038273D01*
X183102587Y-59997301D01*
X183134454Y-59992091D01*
X183195912Y-60017028D01*
X183195912Y-60017028D01*
G37*
X183195912Y-60017028D02*
X183203727Y-60038273D01*
X183166322Y-60079244D01*
X183134454Y-60084454D01*
X183072997Y-60059518D01*
X183065182Y-60038273D01*
X183102587Y-59997301D01*
X183134454Y-59992091D01*
X183195912Y-60017028D01*
G36*
X183650151Y-60099848D02*
G01*
X183643812Y-60127303D01*
X183619363Y-60130636D01*
X183581351Y-60113739D01*
X183588576Y-60099848D01*
X183643383Y-60094321D01*
X183650151Y-60099848D01*
X183650151Y-60099848D01*
G37*
X183650151Y-60099848D02*
X183643812Y-60127303D01*
X183619363Y-60130636D01*
X183581351Y-60113739D01*
X183588576Y-60099848D01*
X183643383Y-60094321D01*
X183650151Y-60099848D01*
G36*
X183650151Y-60192212D02*
G01*
X183655678Y-60247019D01*
X183650151Y-60253788D01*
X183622696Y-60247448D01*
X183619363Y-60223000D01*
X183636261Y-60184987D01*
X183650151Y-60192212D01*
X183650151Y-60192212D01*
G37*
X183650151Y-60192212D02*
X183655678Y-60247019D01*
X183650151Y-60253788D01*
X183622696Y-60247448D01*
X183619363Y-60223000D01*
X183636261Y-60184987D01*
X183650151Y-60192212D01*
G36*
X190863326Y-58294868D02*
G01*
X191109839Y-58372121D01*
X191299920Y-58515686D01*
X191443574Y-58732795D01*
X191540011Y-58992099D01*
X191589594Y-59244019D01*
X191580060Y-59479798D01*
X191507846Y-59729469D01*
X191432318Y-59899727D01*
X191337327Y-60064815D01*
X191219993Y-60196942D01*
X191050801Y-60328417D01*
X191023907Y-60346842D01*
X190684645Y-60541773D01*
X190359761Y-60652202D01*
X190034740Y-60681355D01*
X189716235Y-60637559D01*
X189552097Y-60560888D01*
X189413964Y-60410209D01*
X189295903Y-60178161D01*
X189253993Y-60063942D01*
X189173284Y-59730378D01*
X189172265Y-59518651D01*
X189818268Y-59518651D01*
X189828096Y-59597489D01*
X189877827Y-59770708D01*
X189982957Y-59909528D01*
X190019585Y-59943261D01*
X190120796Y-60022655D01*
X190217023Y-60065219D01*
X190343984Y-60082046D01*
X190474186Y-60084454D01*
X190638190Y-60080950D01*
X190742698Y-60062146D01*
X190820535Y-60015609D01*
X190904525Y-59928903D01*
X190914400Y-59917688D01*
X191013373Y-59790909D01*
X191088836Y-59669628D01*
X191105661Y-59632990D01*
X191121324Y-59475928D01*
X191073517Y-59290704D01*
X190972871Y-59104294D01*
X190836033Y-58948929D01*
X190705928Y-58849608D01*
X190582934Y-58804120D01*
X190437294Y-58793286D01*
X190294425Y-58800163D01*
X190191472Y-58835698D01*
X190087434Y-58917715D01*
X190036198Y-58967662D01*
X189892758Y-59140548D01*
X189823845Y-59312919D01*
X189818268Y-59518651D01*
X189172265Y-59518651D01*
X189171852Y-59433054D01*
X189250058Y-59160219D01*
X189283834Y-59091178D01*
X189428089Y-58849525D01*
X189573948Y-58658483D01*
X189710157Y-58531166D01*
X189804978Y-58483921D01*
X189928404Y-58440085D01*
X190062378Y-58372696D01*
X190065470Y-58370851D01*
X190211984Y-58313341D01*
X190422741Y-58282758D01*
X190550379Y-58276695D01*
X190863326Y-58294868D01*
X190863326Y-58294868D01*
G37*
X190863326Y-58294868D02*
X191109839Y-58372121D01*
X191299920Y-58515686D01*
X191443574Y-58732795D01*
X191540011Y-58992099D01*
X191589594Y-59244019D01*
X191580060Y-59479798D01*
X191507846Y-59729469D01*
X191432318Y-59899727D01*
X191337327Y-60064815D01*
X191219993Y-60196942D01*
X191050801Y-60328417D01*
X191023907Y-60346842D01*
X190684645Y-60541773D01*
X190359761Y-60652202D01*
X190034740Y-60681355D01*
X189716235Y-60637559D01*
X189552097Y-60560888D01*
X189413964Y-60410209D01*
X189295903Y-60178161D01*
X189253993Y-60063942D01*
X189173284Y-59730378D01*
X189172265Y-59518651D01*
X189818268Y-59518651D01*
X189828096Y-59597489D01*
X189877827Y-59770708D01*
X189982957Y-59909528D01*
X190019585Y-59943261D01*
X190120796Y-60022655D01*
X190217023Y-60065219D01*
X190343984Y-60082046D01*
X190474186Y-60084454D01*
X190638190Y-60080950D01*
X190742698Y-60062146D01*
X190820535Y-60015609D01*
X190904525Y-59928903D01*
X190914400Y-59917688D01*
X191013373Y-59790909D01*
X191088836Y-59669628D01*
X191105661Y-59632990D01*
X191121324Y-59475928D01*
X191073517Y-59290704D01*
X190972871Y-59104294D01*
X190836033Y-58948929D01*
X190705928Y-58849608D01*
X190582934Y-58804120D01*
X190437294Y-58793286D01*
X190294425Y-58800163D01*
X190191472Y-58835698D01*
X190087434Y-58917715D01*
X190036198Y-58967662D01*
X189892758Y-59140548D01*
X189823845Y-59312919D01*
X189818268Y-59518651D01*
X189172265Y-59518651D01*
X189171852Y-59433054D01*
X189250058Y-59160219D01*
X189283834Y-59091178D01*
X189428089Y-58849525D01*
X189573948Y-58658483D01*
X189710157Y-58531166D01*
X189804978Y-58483921D01*
X189928404Y-58440085D01*
X190062378Y-58372696D01*
X190065470Y-58370851D01*
X190211984Y-58313341D01*
X190422741Y-58282758D01*
X190550379Y-58276695D01*
X190863326Y-58294868D01*
G36*
X193560879Y-60885435D02*
G01*
X193562414Y-60900596D01*
X193490118Y-60906787D01*
X193479182Y-60906724D01*
X193407556Y-60900065D01*
X193414393Y-60886009D01*
X193422333Y-60883724D01*
X193522932Y-60876963D01*
X193560879Y-60885435D01*
X193560879Y-60885435D01*
G37*
X193560879Y-60885435D02*
X193562414Y-60900596D01*
X193490118Y-60906787D01*
X193479182Y-60906724D01*
X193407556Y-60900065D01*
X193414393Y-60886009D01*
X193422333Y-60883724D01*
X193522932Y-60876963D01*
X193560879Y-60885435D01*
G36*
X193383972Y-61008746D02*
G01*
X193341628Y-61080735D01*
X193291568Y-61138533D01*
X193274506Y-61122091D01*
X193272832Y-61091634D01*
X193297360Y-61007053D01*
X193320618Y-60983101D01*
X193379910Y-60965673D01*
X193383972Y-61008746D01*
X193383972Y-61008746D01*
G37*
X193383972Y-61008746D02*
X193341628Y-61080735D01*
X193291568Y-61138533D01*
X193274506Y-61122091D01*
X193272832Y-61091634D01*
X193297360Y-61007053D01*
X193320618Y-60983101D01*
X193379910Y-60965673D01*
X193383972Y-61008746D01*
G36*
X193115283Y-61199267D02*
G01*
X193173524Y-61232274D01*
X193178293Y-61250545D01*
X193136562Y-61367708D01*
X193025251Y-61432764D01*
X193003187Y-61437042D01*
X192895596Y-61473394D01*
X192845864Y-61507481D01*
X192779656Y-61556318D01*
X192711636Y-61541302D01*
X192673969Y-61518903D01*
X192631751Y-61472562D01*
X192663867Y-61409285D01*
X192668079Y-61404156D01*
X192744397Y-61343676D01*
X192787168Y-61331364D01*
X192853362Y-61294220D01*
X192872428Y-61262091D01*
X192926977Y-61215600D01*
X193020515Y-61194184D01*
X193115283Y-61199267D01*
X193115283Y-61199267D01*
G37*
X193115283Y-61199267D02*
X193173524Y-61232274D01*
X193178293Y-61250545D01*
X193136562Y-61367708D01*
X193025251Y-61432764D01*
X193003187Y-61437042D01*
X192895596Y-61473394D01*
X192845864Y-61507481D01*
X192779656Y-61556318D01*
X192711636Y-61541302D01*
X192673969Y-61518903D01*
X192631751Y-61472562D01*
X192663867Y-61409285D01*
X192668079Y-61404156D01*
X192744397Y-61343676D01*
X192787168Y-61331364D01*
X192853362Y-61294220D01*
X192872428Y-61262091D01*
X192926977Y-61215600D01*
X193020515Y-61194184D01*
X193115283Y-61199267D01*
G36*
X185475673Y-59265302D02*
G01*
X185759925Y-59296299D01*
X185986865Y-59359574D01*
X186189261Y-59466978D01*
X186335949Y-59576454D01*
X186507928Y-59740937D01*
X186626210Y-59918583D01*
X186700630Y-60132086D01*
X186741025Y-60404141D01*
X186749678Y-60530959D01*
X186758063Y-60739940D01*
X186754637Y-60882468D01*
X186736033Y-60984065D01*
X186698885Y-61070256D01*
X186672646Y-61114999D01*
X186558573Y-61263769D01*
X186415635Y-61371336D01*
X186218823Y-61453703D01*
X186081598Y-61493272D01*
X185824159Y-61543826D01*
X185575967Y-61552410D01*
X185299730Y-61518893D01*
X185156373Y-61490048D01*
X184968075Y-61440020D01*
X184786277Y-61377621D01*
X184688634Y-61334980D01*
X184548474Y-61240370D01*
X184391178Y-61099793D01*
X184241835Y-60939530D01*
X184125536Y-60785862D01*
X184076078Y-60693357D01*
X184044615Y-60542311D01*
X184042278Y-60484714D01*
X184823653Y-60484714D01*
X184870157Y-60693161D01*
X184983677Y-60873310D01*
X184985611Y-60875365D01*
X185129518Y-61005754D01*
X185271834Y-61076125D01*
X185441590Y-61094778D01*
X185666998Y-61070149D01*
X185785344Y-61037240D01*
X185875467Y-60969660D01*
X185968246Y-60843375D01*
X185977848Y-60828203D01*
X186059377Y-60665232D01*
X186104728Y-60505568D01*
X186109806Y-60373823D01*
X186070516Y-60294608D01*
X186067000Y-60292273D01*
X186027678Y-60226885D01*
X186020818Y-60177636D01*
X185992346Y-60087751D01*
X185922009Y-59975202D01*
X185903390Y-59951986D01*
X185747503Y-59833835D01*
X185543261Y-59774904D01*
X185317559Y-59780853D01*
X185213975Y-59806922D01*
X185039326Y-59909072D01*
X184912929Y-60070720D01*
X184839474Y-60269917D01*
X184823653Y-60484714D01*
X184042278Y-60484714D01*
X184036534Y-60343191D01*
X184050639Y-60136959D01*
X184085734Y-59964574D01*
X184098377Y-59929806D01*
X184241536Y-59702494D01*
X184456859Y-59515374D01*
X184730422Y-59375161D01*
X185048306Y-59288573D01*
X185396588Y-59262325D01*
X185475673Y-59265302D01*
X185475673Y-59265302D01*
G37*
X185475673Y-59265302D02*
X185759925Y-59296299D01*
X185986865Y-59359574D01*
X186189261Y-59466978D01*
X186335949Y-59576454D01*
X186507928Y-59740937D01*
X186626210Y-59918583D01*
X186700630Y-60132086D01*
X186741025Y-60404141D01*
X186749678Y-60530959D01*
X186758063Y-60739940D01*
X186754637Y-60882468D01*
X186736033Y-60984065D01*
X186698885Y-61070256D01*
X186672646Y-61114999D01*
X186558573Y-61263769D01*
X186415635Y-61371336D01*
X186218823Y-61453703D01*
X186081598Y-61493272D01*
X185824159Y-61543826D01*
X185575967Y-61552410D01*
X185299730Y-61518893D01*
X185156373Y-61490048D01*
X184968075Y-61440020D01*
X184786277Y-61377621D01*
X184688634Y-61334980D01*
X184548474Y-61240370D01*
X184391178Y-61099793D01*
X184241835Y-60939530D01*
X184125536Y-60785862D01*
X184076078Y-60693357D01*
X184044615Y-60542311D01*
X184042278Y-60484714D01*
X184823653Y-60484714D01*
X184870157Y-60693161D01*
X184983677Y-60873310D01*
X184985611Y-60875365D01*
X185129518Y-61005754D01*
X185271834Y-61076125D01*
X185441590Y-61094778D01*
X185666998Y-61070149D01*
X185785344Y-61037240D01*
X185875467Y-60969660D01*
X185968246Y-60843375D01*
X185977848Y-60828203D01*
X186059377Y-60665232D01*
X186104728Y-60505568D01*
X186109806Y-60373823D01*
X186070516Y-60294608D01*
X186067000Y-60292273D01*
X186027678Y-60226885D01*
X186020818Y-60177636D01*
X185992346Y-60087751D01*
X185922009Y-59975202D01*
X185903390Y-59951986D01*
X185747503Y-59833835D01*
X185543261Y-59774904D01*
X185317559Y-59780853D01*
X185213975Y-59806922D01*
X185039326Y-59909072D01*
X184912929Y-60070720D01*
X184839474Y-60269917D01*
X184823653Y-60484714D01*
X184042278Y-60484714D01*
X184036534Y-60343191D01*
X184050639Y-60136959D01*
X184085734Y-59964574D01*
X184098377Y-59929806D01*
X184241536Y-59702494D01*
X184456859Y-59515374D01*
X184730422Y-59375161D01*
X185048306Y-59288573D01*
X185396588Y-59262325D01*
X185475673Y-59265302D01*
G36*
X192255363Y-62047182D02*
G01*
X192232273Y-62070273D01*
X192209182Y-62047182D01*
X192232273Y-62024091D01*
X192255363Y-62047182D01*
X192255363Y-62047182D01*
G37*
X192255363Y-62047182D02*
X192232273Y-62070273D01*
X192209182Y-62047182D01*
X192232273Y-62024091D01*
X192255363Y-62047182D01*
G36*
X192024454Y-62062720D02*
G01*
X192120282Y-62087465D01*
X192187132Y-62123703D01*
X192203554Y-62156094D01*
X192172236Y-62168409D01*
X192025302Y-62202605D01*
X191960953Y-62268653D01*
X191962598Y-62338593D01*
X191945046Y-62412012D01*
X191877093Y-62474130D01*
X191792733Y-62505494D01*
X191725963Y-62486649D01*
X191719280Y-62477831D01*
X191729311Y-62417624D01*
X191797281Y-62344545D01*
X191877883Y-62249439D01*
X191907832Y-62154610D01*
X191925647Y-62076214D01*
X191994724Y-62059577D01*
X192024454Y-62062720D01*
X192024454Y-62062720D01*
G37*
X192024454Y-62062720D02*
X192120282Y-62087465D01*
X192187132Y-62123703D01*
X192203554Y-62156094D01*
X192172236Y-62168409D01*
X192025302Y-62202605D01*
X191960953Y-62268653D01*
X191962598Y-62338593D01*
X191945046Y-62412012D01*
X191877093Y-62474130D01*
X191792733Y-62505494D01*
X191725963Y-62486649D01*
X191719280Y-62477831D01*
X191729311Y-62417624D01*
X191797281Y-62344545D01*
X191877883Y-62249439D01*
X191907832Y-62154610D01*
X191925647Y-62076214D01*
X191994724Y-62059577D01*
X192024454Y-62062720D01*
G36*
X190269545Y-62970818D02*
G01*
X190246454Y-62993909D01*
X190223363Y-62970818D01*
X190246454Y-62947727D01*
X190269545Y-62970818D01*
X190269545Y-62970818D01*
G37*
X190269545Y-62970818D02*
X190246454Y-62993909D01*
X190223363Y-62970818D01*
X190246454Y-62947727D01*
X190269545Y-62970818D01*
G36*
X191464330Y-61601353D02*
G01*
X191465888Y-61683665D01*
X191465379Y-61689273D01*
X191469675Y-61829037D01*
X191489577Y-61924830D01*
X191499112Y-62035778D01*
X191474860Y-62084158D01*
X191430558Y-62171856D01*
X191424091Y-62219504D01*
X191389562Y-62304868D01*
X191352027Y-62331734D01*
X191281572Y-62396125D01*
X191202140Y-62524258D01*
X191125704Y-62689919D01*
X191064236Y-62866891D01*
X191029709Y-63028962D01*
X191028509Y-63040091D01*
X190997336Y-63197035D01*
X190944636Y-63333860D01*
X190926780Y-63363364D01*
X190848207Y-63487933D01*
X190773978Y-63638165D01*
X190690970Y-63841527D01*
X190662904Y-63915636D01*
X190597944Y-64053177D01*
X190524486Y-64158615D01*
X190496973Y-64183800D01*
X190426852Y-64256816D01*
X190408091Y-64307769D01*
X190374981Y-64370715D01*
X190306622Y-64406605D01*
X190254578Y-64395184D01*
X190263630Y-64346295D01*
X190311393Y-64243500D01*
X190373603Y-64132821D01*
X190465325Y-63954339D01*
X190513403Y-63779910D01*
X190531248Y-63594273D01*
X190543957Y-63372291D01*
X190558812Y-63222249D01*
X190579592Y-63123734D01*
X190610079Y-63056336D01*
X190637933Y-63018285D01*
X190672701Y-62932460D01*
X190701921Y-62777457D01*
X190721303Y-62576455D01*
X190722019Y-62564159D01*
X190743007Y-62333854D01*
X190775070Y-62194382D01*
X190806597Y-62148796D01*
X190858400Y-62076920D01*
X190871378Y-62010251D01*
X190915989Y-61859438D01*
X191046918Y-61729918D01*
X191196675Y-61647929D01*
X191345951Y-61585982D01*
X191429760Y-61569624D01*
X191464330Y-61601353D01*
X191464330Y-61601353D01*
G37*
X191464330Y-61601353D02*
X191465888Y-61683665D01*
X191465379Y-61689273D01*
X191469675Y-61829037D01*
X191489577Y-61924830D01*
X191499112Y-62035778D01*
X191474860Y-62084158D01*
X191430558Y-62171856D01*
X191424091Y-62219504D01*
X191389562Y-62304868D01*
X191352027Y-62331734D01*
X191281572Y-62396125D01*
X191202140Y-62524258D01*
X191125704Y-62689919D01*
X191064236Y-62866891D01*
X191029709Y-63028962D01*
X191028509Y-63040091D01*
X190997336Y-63197035D01*
X190944636Y-63333860D01*
X190926780Y-63363364D01*
X190848207Y-63487933D01*
X190773978Y-63638165D01*
X190690970Y-63841527D01*
X190662904Y-63915636D01*
X190597944Y-64053177D01*
X190524486Y-64158615D01*
X190496973Y-64183800D01*
X190426852Y-64256816D01*
X190408091Y-64307769D01*
X190374981Y-64370715D01*
X190306622Y-64406605D01*
X190254578Y-64395184D01*
X190263630Y-64346295D01*
X190311393Y-64243500D01*
X190373603Y-64132821D01*
X190465325Y-63954339D01*
X190513403Y-63779910D01*
X190531248Y-63594273D01*
X190543957Y-63372291D01*
X190558812Y-63222249D01*
X190579592Y-63123734D01*
X190610079Y-63056336D01*
X190637933Y-63018285D01*
X190672701Y-62932460D01*
X190701921Y-62777457D01*
X190721303Y-62576455D01*
X190722019Y-62564159D01*
X190743007Y-62333854D01*
X190775070Y-62194382D01*
X190806597Y-62148796D01*
X190858400Y-62076920D01*
X190871378Y-62010251D01*
X190915989Y-61859438D01*
X191046918Y-61729918D01*
X191196675Y-61647929D01*
X191345951Y-61585982D01*
X191429760Y-61569624D01*
X191464330Y-61601353D01*
G36*
X185063442Y-64604771D02*
G01*
X185061857Y-64616955D01*
X185048742Y-64693965D01*
X185040239Y-64773973D01*
X185019542Y-64859898D01*
X184991958Y-64887364D01*
X184970376Y-64846835D01*
X184965413Y-64746258D01*
X184967394Y-64714182D01*
X184987224Y-64607445D01*
X185018699Y-64557313D01*
X185027909Y-64557164D01*
X185063442Y-64604771D01*
X185063442Y-64604771D01*
G37*
X185063442Y-64604771D02*
X185061857Y-64616955D01*
X185048742Y-64693965D01*
X185040239Y-64773973D01*
X185019542Y-64859898D01*
X184991958Y-64887364D01*
X184970376Y-64846835D01*
X184965413Y-64746258D01*
X184967394Y-64714182D01*
X184987224Y-64607445D01*
X185018699Y-64557313D01*
X185027909Y-64557164D01*
X185063442Y-64604771D01*
G36*
X185050470Y-64969276D02*
G01*
X185051000Y-64979727D01*
X185015497Y-65024134D01*
X185002092Y-65025909D01*
X184974511Y-64997616D01*
X184981727Y-64979727D01*
X185023226Y-64935670D01*
X185030634Y-64933545D01*
X185050470Y-64969276D01*
X185050470Y-64969276D01*
G37*
X185050470Y-64969276D02*
X185051000Y-64979727D01*
X185015497Y-65024134D01*
X185002092Y-65025909D01*
X184974511Y-64997616D01*
X184981727Y-64979727D01*
X185023226Y-64935670D01*
X185030634Y-64933545D01*
X185050470Y-64969276D01*
G36*
X187912931Y-69725416D02*
G01*
X187914273Y-69736454D01*
X187879129Y-69781294D01*
X187868091Y-69782636D01*
X187823251Y-69747493D01*
X187821909Y-69736454D01*
X187857052Y-69691615D01*
X187868091Y-69690273D01*
X187912931Y-69725416D01*
X187912931Y-69725416D01*
G37*
X187912931Y-69725416D02*
X187914273Y-69736454D01*
X187879129Y-69781294D01*
X187868091Y-69782636D01*
X187823251Y-69747493D01*
X187821909Y-69736454D01*
X187857052Y-69691615D01*
X187868091Y-69690273D01*
X187912931Y-69725416D01*
G36*
X187175363Y-70359909D02*
G01*
X187152273Y-70383000D01*
X187129182Y-70359909D01*
X187152273Y-70336818D01*
X187175363Y-70359909D01*
X187175363Y-70359909D01*
G37*
X187175363Y-70359909D02*
X187152273Y-70383000D01*
X187129182Y-70359909D01*
X187152273Y-70336818D01*
X187175363Y-70359909D01*
G36*
X186817728Y-70320678D02*
G01*
X186831309Y-70332335D01*
X186912454Y-70376895D01*
X186958995Y-70390063D01*
X187012600Y-70407209D01*
X187002118Y-70442613D01*
X186948163Y-70498454D01*
X186787671Y-70655771D01*
X186682486Y-70764693D01*
X186622172Y-70841699D01*
X186596291Y-70903269D01*
X186594406Y-70965883D01*
X186605127Y-71040048D01*
X186613220Y-71160140D01*
X186591697Y-71213225D01*
X186585843Y-71214273D01*
X186525308Y-71249299D01*
X186508893Y-71326924D01*
X186541839Y-71405964D01*
X186559430Y-71421879D01*
X186609310Y-71468849D01*
X186584567Y-71505881D01*
X186537141Y-71533091D01*
X186459656Y-71595926D01*
X186436454Y-71645798D01*
X186410958Y-71727338D01*
X186371600Y-71793313D01*
X186332019Y-71838031D01*
X186307016Y-71825941D01*
X186286701Y-71743500D01*
X186273242Y-71658586D01*
X186254820Y-71491852D01*
X186240522Y-71282324D01*
X186234187Y-71105355D01*
X186235296Y-70923374D01*
X186250153Y-70806410D01*
X186284765Y-70727441D01*
X186330089Y-70674092D01*
X186426096Y-70556922D01*
X186504457Y-70431638D01*
X186595394Y-70326270D01*
X186709329Y-70286394D01*
X186817728Y-70320678D01*
X186817728Y-70320678D01*
G37*
X186817728Y-70320678D02*
X186831309Y-70332335D01*
X186912454Y-70376895D01*
X186958995Y-70390063D01*
X187012600Y-70407209D01*
X187002118Y-70442613D01*
X186948163Y-70498454D01*
X186787671Y-70655771D01*
X186682486Y-70764693D01*
X186622172Y-70841699D01*
X186596291Y-70903269D01*
X186594406Y-70965883D01*
X186605127Y-71040048D01*
X186613220Y-71160140D01*
X186591697Y-71213225D01*
X186585843Y-71214273D01*
X186525308Y-71249299D01*
X186508893Y-71326924D01*
X186541839Y-71405964D01*
X186559430Y-71421879D01*
X186609310Y-71468849D01*
X186584567Y-71505881D01*
X186537141Y-71533091D01*
X186459656Y-71595926D01*
X186436454Y-71645798D01*
X186410958Y-71727338D01*
X186371600Y-71793313D01*
X186332019Y-71838031D01*
X186307016Y-71825941D01*
X186286701Y-71743500D01*
X186273242Y-71658586D01*
X186254820Y-71491852D01*
X186240522Y-71282324D01*
X186234187Y-71105355D01*
X186235296Y-70923374D01*
X186250153Y-70806410D01*
X186284765Y-70727441D01*
X186330089Y-70674092D01*
X186426096Y-70556922D01*
X186504457Y-70431638D01*
X186595394Y-70326270D01*
X186709329Y-70286394D01*
X186817728Y-70320678D01*
G36*
X184576674Y-72017644D02*
G01*
X184562901Y-72038634D01*
X184516060Y-72041899D01*
X184466783Y-72030621D01*
X184488159Y-72013998D01*
X184560335Y-72008492D01*
X184576674Y-72017644D01*
X184576674Y-72017644D01*
G37*
X184576674Y-72017644D02*
X184562901Y-72038634D01*
X184516060Y-72041899D01*
X184466783Y-72030621D01*
X184488159Y-72013998D01*
X184560335Y-72008492D01*
X184576674Y-72017644D01*
G36*
X190251520Y-71800864D02*
G01*
X190296462Y-71836446D01*
X190279802Y-71899812D01*
X190199419Y-71980726D01*
X190116317Y-72057276D01*
X190100953Y-72112618D01*
X190127898Y-72157263D01*
X190164036Y-72218737D01*
X190128640Y-72251073D01*
X190124656Y-72252591D01*
X190020166Y-72277453D01*
X189862710Y-72300311D01*
X189691634Y-72316004D01*
X189614522Y-72319519D01*
X189515288Y-72344478D01*
X189476335Y-72425195D01*
X189475976Y-72427694D01*
X189458233Y-72497300D01*
X189414086Y-72505546D01*
X189334144Y-72471250D01*
X189248936Y-72417877D01*
X189237068Y-72361002D01*
X189254950Y-72320011D01*
X189329023Y-72231114D01*
X189428352Y-72154148D01*
X189545830Y-72080093D01*
X189689810Y-71985842D01*
X189738454Y-71953239D01*
X189888443Y-71869254D01*
X190033375Y-71816426D01*
X190159112Y-71793910D01*
X190251520Y-71800864D01*
X190251520Y-71800864D01*
G37*
X190251520Y-71800864D02*
X190296462Y-71836446D01*
X190279802Y-71899812D01*
X190199419Y-71980726D01*
X190116317Y-72057276D01*
X190100953Y-72112618D01*
X190127898Y-72157263D01*
X190164036Y-72218737D01*
X190128640Y-72251073D01*
X190124656Y-72252591D01*
X190020166Y-72277453D01*
X189862710Y-72300311D01*
X189691634Y-72316004D01*
X189614522Y-72319519D01*
X189515288Y-72344478D01*
X189476335Y-72425195D01*
X189475976Y-72427694D01*
X189458233Y-72497300D01*
X189414086Y-72505546D01*
X189334144Y-72471250D01*
X189248936Y-72417877D01*
X189237068Y-72361002D01*
X189254950Y-72320011D01*
X189329023Y-72231114D01*
X189428352Y-72154148D01*
X189545830Y-72080093D01*
X189689810Y-71985842D01*
X189738454Y-71953239D01*
X189888443Y-71869254D01*
X190033375Y-71816426D01*
X190159112Y-71793910D01*
X190251520Y-71800864D01*
G36*
X189853716Y-72472926D02*
G01*
X189896640Y-72516649D01*
X189900091Y-72548159D01*
X189860853Y-72621115D01*
X189768233Y-72673007D01*
X189659869Y-72692675D01*
X189573398Y-72668963D01*
X189556303Y-72650076D01*
X189543186Y-72562423D01*
X189604800Y-72493705D01*
X189723519Y-72461716D01*
X189743395Y-72461182D01*
X189853716Y-72472926D01*
X189853716Y-72472926D01*
G37*
X189853716Y-72472926D02*
X189896640Y-72516649D01*
X189900091Y-72548159D01*
X189860853Y-72621115D01*
X189768233Y-72673007D01*
X189659869Y-72692675D01*
X189573398Y-72668963D01*
X189556303Y-72650076D01*
X189543186Y-72562423D01*
X189604800Y-72493705D01*
X189723519Y-72461716D01*
X189743395Y-72461182D01*
X189853716Y-72472926D01*
G36*
X189861649Y-72816293D02*
G01*
X189900091Y-72853727D01*
X189927806Y-72909461D01*
X189911400Y-72923000D01*
X189846168Y-72891162D01*
X189807727Y-72853727D01*
X189780012Y-72797993D01*
X189796418Y-72784454D01*
X189861649Y-72816293D01*
X189861649Y-72816293D01*
G37*
X189861649Y-72816293D02*
X189900091Y-72853727D01*
X189927806Y-72909461D01*
X189911400Y-72923000D01*
X189846168Y-72891162D01*
X189807727Y-72853727D01*
X189780012Y-72797993D01*
X189796418Y-72784454D01*
X189861649Y-72816293D01*
G36*
X196919727Y-73384818D02*
G01*
X196414453Y-73384818D01*
X196183637Y-73380479D01*
X196008340Y-73368323D01*
X195902818Y-73349638D01*
X195879250Y-73336394D01*
X195824807Y-73314644D01*
X195795706Y-73331361D01*
X195732614Y-73348913D01*
X195602909Y-73362629D01*
X195423770Y-73372518D01*
X195212377Y-73378589D01*
X194985909Y-73380850D01*
X194761547Y-73379311D01*
X194556469Y-73373980D01*
X194387855Y-73364864D01*
X194272885Y-73351974D01*
X194228737Y-73335317D01*
X194230768Y-73330577D01*
X194300516Y-73300515D01*
X194434588Y-73270935D01*
X194605112Y-73247858D01*
X194620332Y-73246395D01*
X194806361Y-73223672D01*
X194971557Y-73194064D01*
X195080410Y-73163946D01*
X195081030Y-73163690D01*
X195194003Y-73132143D01*
X195358599Y-73103480D01*
X195496667Y-73087893D01*
X195700289Y-73058933D01*
X195908824Y-73010867D01*
X196019182Y-72975356D01*
X196189353Y-72924987D01*
X196402081Y-72881792D01*
X196584909Y-72857922D01*
X196919727Y-72828646D01*
X196919727Y-73384818D01*
X196919727Y-73384818D01*
G37*
X196919727Y-73384818D02*
X196414453Y-73384818D01*
X196183637Y-73380479D01*
X196008340Y-73368323D01*
X195902818Y-73349638D01*
X195879250Y-73336394D01*
X195824807Y-73314644D01*
X195795706Y-73331361D01*
X195732614Y-73348913D01*
X195602909Y-73362629D01*
X195423770Y-73372518D01*
X195212377Y-73378589D01*
X194985909Y-73380850D01*
X194761547Y-73379311D01*
X194556469Y-73373980D01*
X194387855Y-73364864D01*
X194272885Y-73351974D01*
X194228737Y-73335317D01*
X194230768Y-73330577D01*
X194300516Y-73300515D01*
X194434588Y-73270935D01*
X194605112Y-73247858D01*
X194620332Y-73246395D01*
X194806361Y-73223672D01*
X194971557Y-73194064D01*
X195080410Y-73163946D01*
X195081030Y-73163690D01*
X195194003Y-73132143D01*
X195358599Y-73103480D01*
X195496667Y-73087893D01*
X195700289Y-73058933D01*
X195908824Y-73010867D01*
X196019182Y-72975356D01*
X196189353Y-72924987D01*
X196402081Y-72881792D01*
X196584909Y-72857922D01*
X196919727Y-72828646D01*
X196919727Y-73384818D01*
G36*
X179728646Y-55238370D02*
G01*
X179822291Y-55253679D01*
X179874914Y-55290722D01*
X179912163Y-55358931D01*
X179913662Y-55362363D01*
X179973390Y-55481920D01*
X180056023Y-55627556D01*
X180084459Y-55674091D01*
X180167179Y-55831223D01*
X180245716Y-56019879D01*
X180275379Y-56107754D01*
X180349145Y-56320955D01*
X180432899Y-56515295D01*
X180517145Y-56672719D01*
X180592386Y-56775170D01*
X180642358Y-56805545D01*
X180677850Y-56787976D01*
X180692167Y-56723132D01*
X180687756Y-56592806D01*
X180681168Y-56516909D01*
X180639957Y-56268196D01*
X180571041Y-56056726D01*
X180482210Y-55899770D01*
X180381253Y-55814599D01*
X180361444Y-55807982D01*
X180266005Y-55741353D01*
X180198152Y-55615389D01*
X180193522Y-55589672D01*
X180819367Y-55589672D01*
X180825162Y-55604492D01*
X180880528Y-55647646D01*
X180965753Y-55618866D01*
X180980385Y-55609884D01*
X181016560Y-55565516D01*
X180989719Y-55537226D01*
X180914540Y-55521284D01*
X180845099Y-55543940D01*
X180819367Y-55589672D01*
X180193522Y-55589672D01*
X180170518Y-55461901D01*
X180181778Y-55355468D01*
X180211922Y-55235364D01*
X180813373Y-55235364D01*
X181092521Y-55238235D01*
X181300627Y-55251803D01*
X181458956Y-55283498D01*
X181588774Y-55340748D01*
X181711345Y-55430984D01*
X181847933Y-55561636D01*
X181899759Y-55614939D01*
X182143629Y-55860657D01*
X182333202Y-56035484D01*
X182470828Y-56141483D01*
X182539369Y-56176437D01*
X182627199Y-56243568D01*
X182706773Y-56366213D01*
X182759948Y-56508054D01*
X182768584Y-56632773D01*
X182768227Y-56634599D01*
X182726278Y-56874617D01*
X182714409Y-57032720D01*
X182732534Y-57114289D01*
X182760349Y-57128818D01*
X182840836Y-57091300D01*
X182933605Y-56998878D01*
X183015041Y-56881754D01*
X183061531Y-56770127D01*
X183065182Y-56738957D01*
X183093283Y-56627501D01*
X183157545Y-56515853D01*
X183224202Y-56393609D01*
X183249909Y-56277266D01*
X183256986Y-56199731D01*
X183293199Y-56152634D01*
X183381020Y-56118946D01*
X183493997Y-56092295D01*
X183607341Y-56034471D01*
X183661984Y-55961437D01*
X183727463Y-55881702D01*
X183857142Y-55788464D01*
X183972078Y-55725362D01*
X184160870Y-55619929D01*
X184354813Y-55492559D01*
X184458921Y-55413635D01*
X184675025Y-55235364D01*
X186606376Y-55243432D01*
X187009262Y-55245546D01*
X187374161Y-55248302D01*
X187692840Y-55251576D01*
X187957062Y-55255240D01*
X188158594Y-55259170D01*
X188289199Y-55263240D01*
X188340642Y-55267323D01*
X188329944Y-55269740D01*
X188193763Y-55294899D01*
X188101385Y-55336587D01*
X188085062Y-55354273D01*
X188031920Y-55394766D01*
X187923228Y-55402779D01*
X187831027Y-55394407D01*
X187692565Y-55379053D01*
X187591760Y-55370292D01*
X187567909Y-55369443D01*
X187297014Y-55407425D01*
X187065814Y-55482688D01*
X186909490Y-55532729D01*
X186755406Y-55557921D01*
X186732563Y-55558636D01*
X186576785Y-55577694D01*
X186426476Y-55621984D01*
X186193590Y-55712198D01*
X185939563Y-55799516D01*
X185708321Y-55869178D01*
X185632888Y-55888592D01*
X185477719Y-55941580D01*
X185337968Y-56013777D01*
X185325577Y-56022244D01*
X185201024Y-56086385D01*
X185081773Y-56112818D01*
X184986446Y-56137758D01*
X184846012Y-56203332D01*
X184689934Y-56295669D01*
X184681297Y-56301370D01*
X184516557Y-56405591D01*
X184359156Y-56496512D01*
X184244831Y-56553681D01*
X184113891Y-56633130D01*
X183987428Y-56746922D01*
X183968176Y-56769219D01*
X183854258Y-56906482D01*
X183729573Y-57053807D01*
X183704821Y-57082636D01*
X183590881Y-57225099D01*
X183484075Y-57374414D01*
X183464406Y-57404721D01*
X183321398Y-57555353D01*
X183198970Y-57612539D01*
X183001211Y-57687755D01*
X182879632Y-57784267D01*
X182818276Y-57916950D01*
X182807768Y-57977153D01*
X182742118Y-58173724D01*
X182625331Y-58343375D01*
X182515369Y-58493868D01*
X182468999Y-58609367D01*
X182488179Y-58680448D01*
X182551409Y-58699000D01*
X182619811Y-58669129D01*
X182638000Y-58581621D01*
X182645179Y-58485360D01*
X182658476Y-58443766D01*
X182726711Y-58422404D01*
X182849113Y-58415141D01*
X182988782Y-58420660D01*
X183108817Y-58437644D01*
X183169951Y-58462024D01*
X183201569Y-58547369D01*
X183212923Y-58715296D01*
X183209846Y-58848899D01*
X183198654Y-59025521D01*
X183177121Y-59141247D01*
X183133162Y-59227525D01*
X183054691Y-59315806D01*
X183015714Y-59354087D01*
X182910942Y-59463740D01*
X182860630Y-59551415D01*
X182848858Y-59654946D01*
X182853589Y-59739369D01*
X182869242Y-59871904D01*
X182889495Y-59961808D01*
X182898455Y-59979303D01*
X182925097Y-60045747D01*
X182874184Y-60083327D01*
X182857363Y-60084454D01*
X182796105Y-60048884D01*
X182788091Y-60017907D01*
X182762638Y-59941049D01*
X182746076Y-59925394D01*
X182663581Y-59917248D01*
X182585075Y-59961374D01*
X182557182Y-60021266D01*
X182590557Y-60083857D01*
X182695890Y-60134400D01*
X182880993Y-60175787D01*
X183032968Y-60197350D01*
X183300936Y-60230251D01*
X183206149Y-60390902D01*
X183144792Y-60515184D01*
X183112719Y-60619753D01*
X183111363Y-60636335D01*
X183075029Y-60722552D01*
X183035481Y-60750237D01*
X182985600Y-60788032D01*
X182989461Y-60809219D01*
X182988712Y-60864599D01*
X182946874Y-60949654D01*
X182896047Y-61107510D01*
X182903742Y-61193713D01*
X182911186Y-61269600D01*
X182887930Y-61340948D01*
X182821639Y-61428468D01*
X182699979Y-61552870D01*
X182675848Y-61576323D01*
X182508702Y-61757470D01*
X182423304Y-61904138D01*
X182419923Y-62025349D01*
X182498827Y-62130124D01*
X182660285Y-62227484D01*
X182695727Y-62243841D01*
X182829753Y-62294037D01*
X182965684Y-62317866D01*
X183138767Y-62319678D01*
X183257580Y-62313202D01*
X183615426Y-62306017D01*
X183890613Y-62337982D01*
X184084208Y-62409248D01*
X184120865Y-62433893D01*
X184229822Y-62517012D01*
X184066531Y-62613356D01*
X183958881Y-62690862D01*
X183923306Y-62762317D01*
X183928324Y-62805622D01*
X183980898Y-62882651D01*
X184033320Y-62901545D01*
X184123908Y-62930379D01*
X184222137Y-62995999D01*
X184382388Y-63119729D01*
X184531165Y-63207685D01*
X184647433Y-63248662D01*
X184692030Y-63246356D01*
X184774303Y-63255590D01*
X184814390Y-63287222D01*
X184900401Y-63331959D01*
X184960334Y-63330119D01*
X185038991Y-63335434D01*
X185057837Y-63369523D01*
X185070474Y-63474535D01*
X185074091Y-63501909D01*
X185086508Y-63610728D01*
X185090344Y-63652000D01*
X185127216Y-63720517D01*
X185201909Y-63723100D01*
X185283608Y-63661498D01*
X185315097Y-63598687D01*
X185274041Y-63543030D01*
X185247313Y-63523299D01*
X185175653Y-63431234D01*
X185176026Y-63363890D01*
X185159533Y-63265476D01*
X185079447Y-63171014D01*
X184962311Y-63104638D01*
X184872434Y-63087809D01*
X184794491Y-63072189D01*
X184779309Y-63009810D01*
X184785744Y-62968035D01*
X184778953Y-62859127D01*
X184698764Y-62777996D01*
X184618371Y-62704712D01*
X184589182Y-62642234D01*
X184591635Y-62616408D01*
X184607564Y-62597847D01*
X184649826Y-62585512D01*
X184731277Y-62578366D01*
X184864772Y-62575370D01*
X185063167Y-62575485D01*
X185339318Y-62577673D01*
X185383563Y-62578074D01*
X185667327Y-62575723D01*
X185871108Y-62562011D01*
X186006712Y-62535871D01*
X186053199Y-62517524D01*
X186191691Y-62463094D01*
X186347098Y-62422302D01*
X186351177Y-62421552D01*
X186469131Y-62383713D01*
X186541860Y-62329934D01*
X186547207Y-62319873D01*
X186596274Y-62273102D01*
X186706359Y-62260229D01*
X186771029Y-62263402D01*
X186895449Y-62266459D01*
X186949577Y-62246242D01*
X186955257Y-62202853D01*
X186981510Y-62132459D01*
X187067535Y-62088171D01*
X187183772Y-62072625D01*
X187300659Y-62088457D01*
X187388638Y-62138303D01*
X187406273Y-62162636D01*
X187431149Y-62235118D01*
X187419443Y-62258513D01*
X187433397Y-62273974D01*
X187512907Y-62308114D01*
X187544818Y-62319875D01*
X187675709Y-62394639D01*
X187764064Y-62495657D01*
X187765032Y-62497606D01*
X187864466Y-62606884D01*
X187959212Y-62647272D01*
X188082011Y-62709323D01*
X188127864Y-62813408D01*
X188089675Y-62941132D01*
X188078867Y-62957518D01*
X188014170Y-63076714D01*
X188026092Y-63147480D01*
X188117384Y-63176838D01*
X188165547Y-63178636D01*
X188279453Y-63167913D01*
X188346605Y-63141723D01*
X188349573Y-63138000D01*
X188404676Y-63101646D01*
X188518576Y-63052637D01*
X188606645Y-63021493D01*
X188768932Y-62980310D01*
X188943664Y-62964830D01*
X189166188Y-62972456D01*
X189219256Y-62976503D01*
X189451609Y-62999223D01*
X189608877Y-63022505D01*
X189687737Y-63044447D01*
X189684868Y-63063146D01*
X189596945Y-63076702D01*
X189420646Y-63083210D01*
X189405889Y-63083345D01*
X189035135Y-63108493D01*
X188698125Y-63174666D01*
X188418079Y-63276772D01*
X188344187Y-63316262D01*
X188219926Y-63377124D01*
X188114767Y-63408424D01*
X188099472Y-63409545D01*
X188017174Y-63448276D01*
X187983093Y-63503333D01*
X187946283Y-63565704D01*
X187872406Y-63578863D01*
X187800543Y-63568458D01*
X187690898Y-63559359D01*
X187627152Y-63575385D01*
X187624634Y-63578580D01*
X187607454Y-63642236D01*
X187586341Y-63768092D01*
X187569590Y-63897724D01*
X187555040Y-64057893D01*
X187563364Y-64165158D01*
X187604390Y-64258051D01*
X187687947Y-64375106D01*
X187693082Y-64381843D01*
X187834389Y-64543327D01*
X187985175Y-64654107D01*
X188184514Y-64742053D01*
X188211583Y-64751706D01*
X188347258Y-64799310D01*
X188032918Y-64990472D01*
X188131493Y-65070293D01*
X188209104Y-65111276D01*
X188336114Y-65142101D01*
X188527915Y-65165587D01*
X188735170Y-65180792D01*
X188976407Y-65192989D01*
X189155948Y-65191719D01*
X189304109Y-65171601D01*
X189451202Y-65127258D01*
X189627540Y-65053310D01*
X189737445Y-65002953D01*
X189837093Y-64965239D01*
X189894490Y-64959230D01*
X189896332Y-64960575D01*
X189889064Y-65005425D01*
X189826954Y-65064082D01*
X189739468Y-65112630D01*
X189692273Y-65126186D01*
X189586764Y-65172764D01*
X189530636Y-65220815D01*
X189438119Y-65275882D01*
X189265866Y-65328153D01*
X189026504Y-65374904D01*
X188732661Y-65413410D01*
X188565789Y-65429004D01*
X188318508Y-65431370D01*
X188072459Y-65403002D01*
X187854753Y-65349294D01*
X187692505Y-65275639D01*
X187655906Y-65248010D01*
X187554145Y-65193499D01*
X187463462Y-65200189D01*
X187412743Y-65262403D01*
X187409786Y-65296395D01*
X187427426Y-65389366D01*
X187465963Y-65516839D01*
X187472038Y-65533909D01*
X187505973Y-65656255D01*
X187493854Y-65743694D01*
X187462092Y-65801167D01*
X187393406Y-65906788D01*
X187342112Y-65804814D01*
X187279400Y-65714483D01*
X187221085Y-65677715D01*
X187187591Y-65699311D01*
X187194796Y-65770181D01*
X187219352Y-65884126D01*
X187223430Y-65949545D01*
X187221306Y-66034410D01*
X187221320Y-66172115D01*
X187222234Y-66252170D01*
X187212729Y-66419630D01*
X187172783Y-66525506D01*
X187137953Y-66565062D01*
X187066928Y-66617238D01*
X187018063Y-66603017D01*
X186991603Y-66574165D01*
X186924697Y-66515469D01*
X186892618Y-66503727D01*
X186852748Y-66532277D01*
X186866571Y-66596564D01*
X186925038Y-66664543D01*
X186941187Y-66675696D01*
X186996502Y-66724179D01*
X187007264Y-66792919D01*
X186982274Y-66906169D01*
X186905245Y-67129810D01*
X186820110Y-67274415D01*
X186730697Y-67333815D01*
X186716208Y-67335000D01*
X186631842Y-67308269D01*
X186605585Y-67277273D01*
X186588718Y-67275135D01*
X186578753Y-67347125D01*
X186578361Y-67358091D01*
X186552973Y-67503339D01*
X186505443Y-67628915D01*
X186456064Y-67750314D01*
X186436454Y-67849269D01*
X186397991Y-67932929D01*
X186322883Y-67989090D01*
X186245205Y-68039588D01*
X186243273Y-68101432D01*
X186255602Y-68127331D01*
X186275999Y-68203731D01*
X186232151Y-68240587D01*
X186131101Y-68256177D01*
X186071119Y-68202534D01*
X186045786Y-68071471D01*
X186043909Y-68000569D01*
X186039107Y-67860995D01*
X186009974Y-67794804D01*
X185934416Y-67783047D01*
X185813000Y-67802484D01*
X185751134Y-67801259D01*
X185730127Y-67749486D01*
X185733028Y-67664870D01*
X185762451Y-67524900D01*
X185813847Y-67412140D01*
X185865533Y-67288734D01*
X185877663Y-67145385D01*
X185876669Y-67139503D01*
X186501993Y-67139503D01*
X186508165Y-67154217D01*
X186564231Y-67177098D01*
X186578944Y-67170926D01*
X186601825Y-67114860D01*
X186595653Y-67100146D01*
X186539587Y-67077266D01*
X186524874Y-67083438D01*
X186501993Y-67139503D01*
X185876669Y-67139503D01*
X185854750Y-67009854D01*
X185801311Y-66909900D01*
X185726169Y-66873182D01*
X185651920Y-66841588D01*
X185583000Y-66781823D01*
X185564298Y-66757727D01*
X186251727Y-66757727D01*
X186270568Y-66850712D01*
X186313806Y-66867993D01*
X186361512Y-66802003D01*
X186362390Y-66799741D01*
X186369893Y-66702972D01*
X186320686Y-66646432D01*
X186295183Y-66642273D01*
X186262511Y-66681810D01*
X186251727Y-66757727D01*
X185564298Y-66757727D01*
X185534320Y-66719103D01*
X185532336Y-66664445D01*
X185581648Y-66584410D01*
X185616511Y-66538134D01*
X185687993Y-66438016D01*
X185707597Y-66368364D01*
X185679658Y-66286358D01*
X185648194Y-66225401D01*
X185585304Y-66105878D01*
X185538200Y-66016100D01*
X185532548Y-66005281D01*
X185513140Y-65934463D01*
X185548200Y-65921215D01*
X185621114Y-65964131D01*
X185677294Y-66017518D01*
X185774488Y-66100985D01*
X185838439Y-66103506D01*
X185843976Y-66098678D01*
X185874427Y-66014717D01*
X185842901Y-65923576D01*
X185767708Y-65863735D01*
X185729070Y-65857182D01*
X185652821Y-65835360D01*
X185637286Y-65787909D01*
X187036818Y-65787909D01*
X187059909Y-65811000D01*
X187083000Y-65787909D01*
X187059909Y-65764818D01*
X187036818Y-65787909D01*
X185637286Y-65787909D01*
X185626079Y-65753679D01*
X185624969Y-65730182D01*
X185609311Y-65603374D01*
X185585392Y-65522364D01*
X185575415Y-65463105D01*
X185632749Y-65442623D01*
X185670963Y-65441545D01*
X185770709Y-65463735D01*
X185817931Y-65507015D01*
X185874430Y-65543989D01*
X185978020Y-65555635D01*
X186086925Y-65541796D01*
X186154118Y-65508276D01*
X186169179Y-65449250D01*
X186174819Y-65351907D01*
X187267727Y-65351907D01*
X187302952Y-65394120D01*
X187313909Y-65395364D01*
X187354439Y-65357773D01*
X187360091Y-65323365D01*
X187337702Y-65275564D01*
X187313909Y-65279909D01*
X187269489Y-65338950D01*
X187267727Y-65351907D01*
X186174819Y-65351907D01*
X186176067Y-65330380D01*
X186175362Y-65249681D01*
X186156156Y-65079713D01*
X186107341Y-64979064D01*
X186083071Y-64957214D01*
X186029351Y-64897040D01*
X186030811Y-64861976D01*
X186044669Y-64795005D01*
X185986121Y-64714937D01*
X185870504Y-64637527D01*
X185771924Y-64596066D01*
X185597496Y-64516911D01*
X185461371Y-64417944D01*
X185384251Y-64316085D01*
X185374273Y-64271067D01*
X185329999Y-64177476D01*
X185204575Y-64087245D01*
X185014977Y-64010265D01*
X184872570Y-63976896D01*
X184781535Y-63993825D01*
X184728199Y-64073521D01*
X184698891Y-64228453D01*
X184691575Y-64305228D01*
X184686950Y-64478942D01*
X184712790Y-64600909D01*
X184760944Y-64687853D01*
X184852485Y-64838119D01*
X184882903Y-64952988D01*
X184856158Y-65062601D01*
X184819112Y-65130595D01*
X184781259Y-65204198D01*
X184755410Y-65291051D01*
X184739381Y-65409580D01*
X184730987Y-65578210D01*
X184728045Y-65815367D01*
X184727900Y-65900085D01*
X184732248Y-66174465D01*
X184744566Y-66409102D01*
X184763524Y-66585395D01*
X184783186Y-66673630D01*
X184814524Y-66806889D01*
X184796395Y-66937190D01*
X184775395Y-67000182D01*
X184742235Y-67149235D01*
X184730380Y-67341439D01*
X184737080Y-67561768D01*
X184759585Y-67795196D01*
X184795147Y-68026696D01*
X184841015Y-68241241D01*
X184894439Y-68423806D01*
X184952671Y-68559364D01*
X185012961Y-68632888D01*
X185072559Y-68629352D01*
X185073381Y-68628680D01*
X185132286Y-68622988D01*
X185184905Y-68709004D01*
X185231273Y-68886849D01*
X185271426Y-69156646D01*
X185295734Y-69398896D01*
X185315429Y-69635769D01*
X185324986Y-69803936D01*
X185322284Y-69926708D01*
X185305197Y-70027395D01*
X185271604Y-70129305D01*
X185219381Y-70255749D01*
X185217228Y-70260815D01*
X185140130Y-70424195D01*
X185061804Y-70561325D01*
X185001317Y-70640168D01*
X184932837Y-70732721D01*
X184912454Y-70804477D01*
X184892941Y-70908582D01*
X184843143Y-71045331D01*
X184776170Y-71188257D01*
X184705135Y-71310895D01*
X184643149Y-71386780D01*
X184617926Y-71399000D01*
X184549122Y-71436696D01*
X184513154Y-71520223D01*
X184522863Y-71605238D01*
X184549603Y-71634924D01*
X184626368Y-71677870D01*
X184647862Y-71687203D01*
X184661439Y-71730810D01*
X184632010Y-71810574D01*
X184578112Y-71893779D01*
X184518283Y-71947712D01*
X184496818Y-71953760D01*
X184441097Y-71993432D01*
X184370111Y-72094392D01*
X184319592Y-72191791D01*
X184238516Y-72370467D01*
X184194002Y-72479601D01*
X184185299Y-72534146D01*
X184211657Y-72549050D01*
X184272326Y-72539266D01*
X184302486Y-72532564D01*
X184397492Y-72518930D01*
X184444764Y-72548940D01*
X184472091Y-72644533D01*
X184477031Y-72670372D01*
X184484544Y-72835230D01*
X184459228Y-73004548D01*
X184456611Y-73013631D01*
X184422044Y-73153915D01*
X184404871Y-73272430D01*
X184404454Y-73286267D01*
X184390856Y-73350352D01*
X184333436Y-73378759D01*
X184219727Y-73384818D01*
X184101453Y-73379925D01*
X184048891Y-73349711D01*
X184035413Y-73270877D01*
X184035000Y-73223182D01*
X184024180Y-73116334D01*
X183997574Y-73062937D01*
X183991930Y-73061545D01*
X183946136Y-73100648D01*
X183905936Y-73190761D01*
X183887075Y-73291088D01*
X183889425Y-73327091D01*
X183874178Y-73340619D01*
X183818643Y-73352001D01*
X183716567Y-73361395D01*
X183561698Y-73368956D01*
X183347782Y-73374842D01*
X183068566Y-73379209D01*
X182717797Y-73382216D01*
X182289222Y-73384018D01*
X181776589Y-73384772D01*
X181589388Y-73384818D01*
X179278273Y-73384818D01*
X179278273Y-69356394D01*
X181699916Y-69356394D01*
X181747859Y-69553278D01*
X181844936Y-69811812D01*
X181852152Y-69828818D01*
X181912701Y-69984690D01*
X181971277Y-70156281D01*
X181978633Y-70180068D01*
X182038027Y-70318641D01*
X182134306Y-70487279D01*
X182227385Y-70622992D01*
X182323557Y-70756844D01*
X182392237Y-70864788D01*
X182418635Y-70923567D01*
X182418636Y-70923717D01*
X182442875Y-70982103D01*
X182507190Y-71094660D01*
X182598975Y-71239692D01*
X182624802Y-71278580D01*
X182739161Y-71458562D01*
X182845165Y-71641472D01*
X182920863Y-71789328D01*
X182923891Y-71796096D01*
X182994976Y-71929493D01*
X183051092Y-71971901D01*
X183093870Y-71923194D01*
X183124941Y-71783243D01*
X183125348Y-71780289D01*
X183148426Y-71644631D01*
X183185360Y-71460863D01*
X183224773Y-71283545D01*
X183298786Y-70877745D01*
X183336922Y-70462455D01*
X183337389Y-70070180D01*
X183307428Y-69782636D01*
X183262148Y-69517860D01*
X183227985Y-69331808D01*
X183201233Y-69212034D01*
X183178189Y-69146096D01*
X183155148Y-69121550D01*
X183128407Y-69125953D01*
X183114333Y-69133967D01*
X183072564Y-69182442D01*
X183104715Y-69243535D01*
X183137788Y-69303429D01*
X183101745Y-69332615D01*
X183002323Y-69337365D01*
X182958455Y-69270705D01*
X182961957Y-69203050D01*
X182964581Y-69118090D01*
X182943565Y-69089278D01*
X182870039Y-69077747D01*
X182805005Y-69062205D01*
X182725871Y-69063177D01*
X182662420Y-69129033D01*
X182633660Y-69181703D01*
X182586796Y-69334794D01*
X182586762Y-69457175D01*
X182588615Y-69568815D01*
X182550391Y-69619466D01*
X182489194Y-69596602D01*
X182455220Y-69553519D01*
X182371666Y-69479253D01*
X182300385Y-69459364D01*
X182212026Y-69430482D01*
X182090908Y-69356586D01*
X182015517Y-69297727D01*
X181878866Y-69189066D01*
X181790613Y-69144638D01*
X181736095Y-69161186D01*
X181702875Y-69228274D01*
X181699916Y-69356394D01*
X179278273Y-69356394D01*
X179278273Y-69020636D01*
X183019000Y-69020636D01*
X183042091Y-69043727D01*
X183065182Y-69020636D01*
X183042091Y-68997545D01*
X183019000Y-69020636D01*
X179278273Y-69020636D01*
X179278273Y-68841111D01*
X181603238Y-68841111D01*
X181610454Y-68859000D01*
X181651954Y-68903057D01*
X181659362Y-68905182D01*
X181660875Y-68902456D01*
X182972818Y-68902456D01*
X183006342Y-68949484D01*
X183019000Y-68951364D01*
X183063981Y-68935607D01*
X183065182Y-68930998D01*
X183032820Y-68891569D01*
X183019000Y-68882091D01*
X182976444Y-68885752D01*
X182972818Y-68902456D01*
X181660875Y-68902456D01*
X181679198Y-68869451D01*
X181679727Y-68859000D01*
X181644225Y-68814593D01*
X181630820Y-68812818D01*
X181603238Y-68841111D01*
X179278273Y-68841111D01*
X179278273Y-58187536D01*
X181272942Y-58187536D01*
X181295235Y-58229647D01*
X181333363Y-58237182D01*
X181390840Y-58213749D01*
X181393785Y-58187536D01*
X181346107Y-58139823D01*
X181333363Y-58137891D01*
X181279214Y-58173844D01*
X181272942Y-58187536D01*
X179278273Y-58187536D01*
X179278273Y-57616508D01*
X180987000Y-57616508D01*
X181014026Y-57766035D01*
X181086393Y-57848531D01*
X181191039Y-57854528D01*
X181264091Y-57817322D01*
X181306879Y-57772177D01*
X181273176Y-57744088D01*
X181202633Y-57695486D01*
X181110404Y-57609047D01*
X181099994Y-57597985D01*
X180987000Y-57476125D01*
X180987000Y-57616508D01*
X179278273Y-57616508D01*
X179278273Y-57336851D01*
X182619436Y-57336851D01*
X182622721Y-57399868D01*
X182681011Y-57426127D01*
X182753933Y-57406733D01*
X182788091Y-57357512D01*
X182754556Y-57300467D01*
X182737885Y-57287967D01*
X182669210Y-57285927D01*
X182619436Y-57336851D01*
X179278273Y-57336851D01*
X179278273Y-55235364D01*
X179568330Y-55235364D01*
X179728646Y-55238370D01*
X179728646Y-55238370D01*
G37*
X179728646Y-55238370D02*
X179822291Y-55253679D01*
X179874914Y-55290722D01*
X179912163Y-55358931D01*
X179913662Y-55362363D01*
X179973390Y-55481920D01*
X180056023Y-55627556D01*
X180084459Y-55674091D01*
X180167179Y-55831223D01*
X180245716Y-56019879D01*
X180275379Y-56107754D01*
X180349145Y-56320955D01*
X180432899Y-56515295D01*
X180517145Y-56672719D01*
X180592386Y-56775170D01*
X180642358Y-56805545D01*
X180677850Y-56787976D01*
X180692167Y-56723132D01*
X180687756Y-56592806D01*
X180681168Y-56516909D01*
X180639957Y-56268196D01*
X180571041Y-56056726D01*
X180482210Y-55899770D01*
X180381253Y-55814599D01*
X180361444Y-55807982D01*
X180266005Y-55741353D01*
X180198152Y-55615389D01*
X180193522Y-55589672D01*
X180819367Y-55589672D01*
X180825162Y-55604492D01*
X180880528Y-55647646D01*
X180965753Y-55618866D01*
X180980385Y-55609884D01*
X181016560Y-55565516D01*
X180989719Y-55537226D01*
X180914540Y-55521284D01*
X180845099Y-55543940D01*
X180819367Y-55589672D01*
X180193522Y-55589672D01*
X180170518Y-55461901D01*
X180181778Y-55355468D01*
X180211922Y-55235364D01*
X180813373Y-55235364D01*
X181092521Y-55238235D01*
X181300627Y-55251803D01*
X181458956Y-55283498D01*
X181588774Y-55340748D01*
X181711345Y-55430984D01*
X181847933Y-55561636D01*
X181899759Y-55614939D01*
X182143629Y-55860657D01*
X182333202Y-56035484D01*
X182470828Y-56141483D01*
X182539369Y-56176437D01*
X182627199Y-56243568D01*
X182706773Y-56366213D01*
X182759948Y-56508054D01*
X182768584Y-56632773D01*
X182768227Y-56634599D01*
X182726278Y-56874617D01*
X182714409Y-57032720D01*
X182732534Y-57114289D01*
X182760349Y-57128818D01*
X182840836Y-57091300D01*
X182933605Y-56998878D01*
X183015041Y-56881754D01*
X183061531Y-56770127D01*
X183065182Y-56738957D01*
X183093283Y-56627501D01*
X183157545Y-56515853D01*
X183224202Y-56393609D01*
X183249909Y-56277266D01*
X183256986Y-56199731D01*
X183293199Y-56152634D01*
X183381020Y-56118946D01*
X183493997Y-56092295D01*
X183607341Y-56034471D01*
X183661984Y-55961437D01*
X183727463Y-55881702D01*
X183857142Y-55788464D01*
X183972078Y-55725362D01*
X184160870Y-55619929D01*
X184354813Y-55492559D01*
X184458921Y-55413635D01*
X184675025Y-55235364D01*
X186606376Y-55243432D01*
X187009262Y-55245546D01*
X187374161Y-55248302D01*
X187692840Y-55251576D01*
X187957062Y-55255240D01*
X188158594Y-55259170D01*
X188289199Y-55263240D01*
X188340642Y-55267323D01*
X188329944Y-55269740D01*
X188193763Y-55294899D01*
X188101385Y-55336587D01*
X188085062Y-55354273D01*
X188031920Y-55394766D01*
X187923228Y-55402779D01*
X187831027Y-55394407D01*
X187692565Y-55379053D01*
X187591760Y-55370292D01*
X187567909Y-55369443D01*
X187297014Y-55407425D01*
X187065814Y-55482688D01*
X186909490Y-55532729D01*
X186755406Y-55557921D01*
X186732563Y-55558636D01*
X186576785Y-55577694D01*
X186426476Y-55621984D01*
X186193590Y-55712198D01*
X185939563Y-55799516D01*
X185708321Y-55869178D01*
X185632888Y-55888592D01*
X185477719Y-55941580D01*
X185337968Y-56013777D01*
X185325577Y-56022244D01*
X185201024Y-56086385D01*
X185081773Y-56112818D01*
X184986446Y-56137758D01*
X184846012Y-56203332D01*
X184689934Y-56295669D01*
X184681297Y-56301370D01*
X184516557Y-56405591D01*
X184359156Y-56496512D01*
X184244831Y-56553681D01*
X184113891Y-56633130D01*
X183987428Y-56746922D01*
X183968176Y-56769219D01*
X183854258Y-56906482D01*
X183729573Y-57053807D01*
X183704821Y-57082636D01*
X183590881Y-57225099D01*
X183484075Y-57374414D01*
X183464406Y-57404721D01*
X183321398Y-57555353D01*
X183198970Y-57612539D01*
X183001211Y-57687755D01*
X182879632Y-57784267D01*
X182818276Y-57916950D01*
X182807768Y-57977153D01*
X182742118Y-58173724D01*
X182625331Y-58343375D01*
X182515369Y-58493868D01*
X182468999Y-58609367D01*
X182488179Y-58680448D01*
X182551409Y-58699000D01*
X182619811Y-58669129D01*
X182638000Y-58581621D01*
X182645179Y-58485360D01*
X182658476Y-58443766D01*
X182726711Y-58422404D01*
X182849113Y-58415141D01*
X182988782Y-58420660D01*
X183108817Y-58437644D01*
X183169951Y-58462024D01*
X183201569Y-58547369D01*
X183212923Y-58715296D01*
X183209846Y-58848899D01*
X183198654Y-59025521D01*
X183177121Y-59141247D01*
X183133162Y-59227525D01*
X183054691Y-59315806D01*
X183015714Y-59354087D01*
X182910942Y-59463740D01*
X182860630Y-59551415D01*
X182848858Y-59654946D01*
X182853589Y-59739369D01*
X182869242Y-59871904D01*
X182889495Y-59961808D01*
X182898455Y-59979303D01*
X182925097Y-60045747D01*
X182874184Y-60083327D01*
X182857363Y-60084454D01*
X182796105Y-60048884D01*
X182788091Y-60017907D01*
X182762638Y-59941049D01*
X182746076Y-59925394D01*
X182663581Y-59917248D01*
X182585075Y-59961374D01*
X182557182Y-60021266D01*
X182590557Y-60083857D01*
X182695890Y-60134400D01*
X182880993Y-60175787D01*
X183032968Y-60197350D01*
X183300936Y-60230251D01*
X183206149Y-60390902D01*
X183144792Y-60515184D01*
X183112719Y-60619753D01*
X183111363Y-60636335D01*
X183075029Y-60722552D01*
X183035481Y-60750237D01*
X182985600Y-60788032D01*
X182989461Y-60809219D01*
X182988712Y-60864599D01*
X182946874Y-60949654D01*
X182896047Y-61107510D01*
X182903742Y-61193713D01*
X182911186Y-61269600D01*
X182887930Y-61340948D01*
X182821639Y-61428468D01*
X182699979Y-61552870D01*
X182675848Y-61576323D01*
X182508702Y-61757470D01*
X182423304Y-61904138D01*
X182419923Y-62025349D01*
X182498827Y-62130124D01*
X182660285Y-62227484D01*
X182695727Y-62243841D01*
X182829753Y-62294037D01*
X182965684Y-62317866D01*
X183138767Y-62319678D01*
X183257580Y-62313202D01*
X183615426Y-62306017D01*
X183890613Y-62337982D01*
X184084208Y-62409248D01*
X184120865Y-62433893D01*
X184229822Y-62517012D01*
X184066531Y-62613356D01*
X183958881Y-62690862D01*
X183923306Y-62762317D01*
X183928324Y-62805622D01*
X183980898Y-62882651D01*
X184033320Y-62901545D01*
X184123908Y-62930379D01*
X184222137Y-62995999D01*
X184382388Y-63119729D01*
X184531165Y-63207685D01*
X184647433Y-63248662D01*
X184692030Y-63246356D01*
X184774303Y-63255590D01*
X184814390Y-63287222D01*
X184900401Y-63331959D01*
X184960334Y-63330119D01*
X185038991Y-63335434D01*
X185057837Y-63369523D01*
X185070474Y-63474535D01*
X185074091Y-63501909D01*
X185086508Y-63610728D01*
X185090344Y-63652000D01*
X185127216Y-63720517D01*
X185201909Y-63723100D01*
X185283608Y-63661498D01*
X185315097Y-63598687D01*
X185274041Y-63543030D01*
X185247313Y-63523299D01*
X185175653Y-63431234D01*
X185176026Y-63363890D01*
X185159533Y-63265476D01*
X185079447Y-63171014D01*
X184962311Y-63104638D01*
X184872434Y-63087809D01*
X184794491Y-63072189D01*
X184779309Y-63009810D01*
X184785744Y-62968035D01*
X184778953Y-62859127D01*
X184698764Y-62777996D01*
X184618371Y-62704712D01*
X184589182Y-62642234D01*
X184591635Y-62616408D01*
X184607564Y-62597847D01*
X184649826Y-62585512D01*
X184731277Y-62578366D01*
X184864772Y-62575370D01*
X185063167Y-62575485D01*
X185339318Y-62577673D01*
X185383563Y-62578074D01*
X185667327Y-62575723D01*
X185871108Y-62562011D01*
X186006712Y-62535871D01*
X186053199Y-62517524D01*
X186191691Y-62463094D01*
X186347098Y-62422302D01*
X186351177Y-62421552D01*
X186469131Y-62383713D01*
X186541860Y-62329934D01*
X186547207Y-62319873D01*
X186596274Y-62273102D01*
X186706359Y-62260229D01*
X186771029Y-62263402D01*
X186895449Y-62266459D01*
X186949577Y-62246242D01*
X186955257Y-62202853D01*
X186981510Y-62132459D01*
X187067535Y-62088171D01*
X187183772Y-62072625D01*
X187300659Y-62088457D01*
X187388638Y-62138303D01*
X187406273Y-62162636D01*
X187431149Y-62235118D01*
X187419443Y-62258513D01*
X187433397Y-62273974D01*
X187512907Y-62308114D01*
X187544818Y-62319875D01*
X187675709Y-62394639D01*
X187764064Y-62495657D01*
X187765032Y-62497606D01*
X187864466Y-62606884D01*
X187959212Y-62647272D01*
X188082011Y-62709323D01*
X188127864Y-62813408D01*
X188089675Y-62941132D01*
X188078867Y-62957518D01*
X188014170Y-63076714D01*
X188026092Y-63147480D01*
X188117384Y-63176838D01*
X188165547Y-63178636D01*
X188279453Y-63167913D01*
X188346605Y-63141723D01*
X188349573Y-63138000D01*
X188404676Y-63101646D01*
X188518576Y-63052637D01*
X188606645Y-63021493D01*
X188768932Y-62980310D01*
X188943664Y-62964830D01*
X189166188Y-62972456D01*
X189219256Y-62976503D01*
X189451609Y-62999223D01*
X189608877Y-63022505D01*
X189687737Y-63044447D01*
X189684868Y-63063146D01*
X189596945Y-63076702D01*
X189420646Y-63083210D01*
X189405889Y-63083345D01*
X189035135Y-63108493D01*
X188698125Y-63174666D01*
X188418079Y-63276772D01*
X188344187Y-63316262D01*
X188219926Y-63377124D01*
X188114767Y-63408424D01*
X188099472Y-63409545D01*
X188017174Y-63448276D01*
X187983093Y-63503333D01*
X187946283Y-63565704D01*
X187872406Y-63578863D01*
X187800543Y-63568458D01*
X187690898Y-63559359D01*
X187627152Y-63575385D01*
X187624634Y-63578580D01*
X187607454Y-63642236D01*
X187586341Y-63768092D01*
X187569590Y-63897724D01*
X187555040Y-64057893D01*
X187563364Y-64165158D01*
X187604390Y-64258051D01*
X187687947Y-64375106D01*
X187693082Y-64381843D01*
X187834389Y-64543327D01*
X187985175Y-64654107D01*
X188184514Y-64742053D01*
X188211583Y-64751706D01*
X188347258Y-64799310D01*
X188032918Y-64990472D01*
X188131493Y-65070293D01*
X188209104Y-65111276D01*
X188336114Y-65142101D01*
X188527915Y-65165587D01*
X188735170Y-65180792D01*
X188976407Y-65192989D01*
X189155948Y-65191719D01*
X189304109Y-65171601D01*
X189451202Y-65127258D01*
X189627540Y-65053310D01*
X189737445Y-65002953D01*
X189837093Y-64965239D01*
X189894490Y-64959230D01*
X189896332Y-64960575D01*
X189889064Y-65005425D01*
X189826954Y-65064082D01*
X189739468Y-65112630D01*
X189692273Y-65126186D01*
X189586764Y-65172764D01*
X189530636Y-65220815D01*
X189438119Y-65275882D01*
X189265866Y-65328153D01*
X189026504Y-65374904D01*
X188732661Y-65413410D01*
X188565789Y-65429004D01*
X188318508Y-65431370D01*
X188072459Y-65403002D01*
X187854753Y-65349294D01*
X187692505Y-65275639D01*
X187655906Y-65248010D01*
X187554145Y-65193499D01*
X187463462Y-65200189D01*
X187412743Y-65262403D01*
X187409786Y-65296395D01*
X187427426Y-65389366D01*
X187465963Y-65516839D01*
X187472038Y-65533909D01*
X187505973Y-65656255D01*
X187493854Y-65743694D01*
X187462092Y-65801167D01*
X187393406Y-65906788D01*
X187342112Y-65804814D01*
X187279400Y-65714483D01*
X187221085Y-65677715D01*
X187187591Y-65699311D01*
X187194796Y-65770181D01*
X187219352Y-65884126D01*
X187223430Y-65949545D01*
X187221306Y-66034410D01*
X187221320Y-66172115D01*
X187222234Y-66252170D01*
X187212729Y-66419630D01*
X187172783Y-66525506D01*
X187137953Y-66565062D01*
X187066928Y-66617238D01*
X187018063Y-66603017D01*
X186991603Y-66574165D01*
X186924697Y-66515469D01*
X186892618Y-66503727D01*
X186852748Y-66532277D01*
X186866571Y-66596564D01*
X186925038Y-66664543D01*
X186941187Y-66675696D01*
X186996502Y-66724179D01*
X187007264Y-66792919D01*
X186982274Y-66906169D01*
X186905245Y-67129810D01*
X186820110Y-67274415D01*
X186730697Y-67333815D01*
X186716208Y-67335000D01*
X186631842Y-67308269D01*
X186605585Y-67277273D01*
X186588718Y-67275135D01*
X186578753Y-67347125D01*
X186578361Y-67358091D01*
X186552973Y-67503339D01*
X186505443Y-67628915D01*
X186456064Y-67750314D01*
X186436454Y-67849269D01*
X186397991Y-67932929D01*
X186322883Y-67989090D01*
X186245205Y-68039588D01*
X186243273Y-68101432D01*
X186255602Y-68127331D01*
X186275999Y-68203731D01*
X186232151Y-68240587D01*
X186131101Y-68256177D01*
X186071119Y-68202534D01*
X186045786Y-68071471D01*
X186043909Y-68000569D01*
X186039107Y-67860995D01*
X186009974Y-67794804D01*
X185934416Y-67783047D01*
X185813000Y-67802484D01*
X185751134Y-67801259D01*
X185730127Y-67749486D01*
X185733028Y-67664870D01*
X185762451Y-67524900D01*
X185813847Y-67412140D01*
X185865533Y-67288734D01*
X185877663Y-67145385D01*
X185876669Y-67139503D01*
X186501993Y-67139503D01*
X186508165Y-67154217D01*
X186564231Y-67177098D01*
X186578944Y-67170926D01*
X186601825Y-67114860D01*
X186595653Y-67100146D01*
X186539587Y-67077266D01*
X186524874Y-67083438D01*
X186501993Y-67139503D01*
X185876669Y-67139503D01*
X185854750Y-67009854D01*
X185801311Y-66909900D01*
X185726169Y-66873182D01*
X185651920Y-66841588D01*
X185583000Y-66781823D01*
X185564298Y-66757727D01*
X186251727Y-66757727D01*
X186270568Y-66850712D01*
X186313806Y-66867993D01*
X186361512Y-66802003D01*
X186362390Y-66799741D01*
X186369893Y-66702972D01*
X186320686Y-66646432D01*
X186295183Y-66642273D01*
X186262511Y-66681810D01*
X186251727Y-66757727D01*
X185564298Y-66757727D01*
X185534320Y-66719103D01*
X185532336Y-66664445D01*
X185581648Y-66584410D01*
X185616511Y-66538134D01*
X185687993Y-66438016D01*
X185707597Y-66368364D01*
X185679658Y-66286358D01*
X185648194Y-66225401D01*
X185585304Y-66105878D01*
X185538200Y-66016100D01*
X185532548Y-66005281D01*
X185513140Y-65934463D01*
X185548200Y-65921215D01*
X185621114Y-65964131D01*
X185677294Y-66017518D01*
X185774488Y-66100985D01*
X185838439Y-66103506D01*
X185843976Y-66098678D01*
X185874427Y-66014717D01*
X185842901Y-65923576D01*
X185767708Y-65863735D01*
X185729070Y-65857182D01*
X185652821Y-65835360D01*
X185637286Y-65787909D01*
X187036818Y-65787909D01*
X187059909Y-65811000D01*
X187083000Y-65787909D01*
X187059909Y-65764818D01*
X187036818Y-65787909D01*
X185637286Y-65787909D01*
X185626079Y-65753679D01*
X185624969Y-65730182D01*
X185609311Y-65603374D01*
X185585392Y-65522364D01*
X185575415Y-65463105D01*
X185632749Y-65442623D01*
X185670963Y-65441545D01*
X185770709Y-65463735D01*
X185817931Y-65507015D01*
X185874430Y-65543989D01*
X185978020Y-65555635D01*
X186086925Y-65541796D01*
X186154118Y-65508276D01*
X186169179Y-65449250D01*
X186174819Y-65351907D01*
X187267727Y-65351907D01*
X187302952Y-65394120D01*
X187313909Y-65395364D01*
X187354439Y-65357773D01*
X187360091Y-65323365D01*
X187337702Y-65275564D01*
X187313909Y-65279909D01*
X187269489Y-65338950D01*
X187267727Y-65351907D01*
X186174819Y-65351907D01*
X186176067Y-65330380D01*
X186175362Y-65249681D01*
X186156156Y-65079713D01*
X186107341Y-64979064D01*
X186083071Y-64957214D01*
X186029351Y-64897040D01*
X186030811Y-64861976D01*
X186044669Y-64795005D01*
X185986121Y-64714937D01*
X185870504Y-64637527D01*
X185771924Y-64596066D01*
X185597496Y-64516911D01*
X185461371Y-64417944D01*
X185384251Y-64316085D01*
X185374273Y-64271067D01*
X185329999Y-64177476D01*
X185204575Y-64087245D01*
X185014977Y-64010265D01*
X184872570Y-63976896D01*
X184781535Y-63993825D01*
X184728199Y-64073521D01*
X184698891Y-64228453D01*
X184691575Y-64305228D01*
X184686950Y-64478942D01*
X184712790Y-64600909D01*
X184760944Y-64687853D01*
X184852485Y-64838119D01*
X184882903Y-64952988D01*
X184856158Y-65062601D01*
X184819112Y-65130595D01*
X184781259Y-65204198D01*
X184755410Y-65291051D01*
X184739381Y-65409580D01*
X184730987Y-65578210D01*
X184728045Y-65815367D01*
X184727900Y-65900085D01*
X184732248Y-66174465D01*
X184744566Y-66409102D01*
X184763524Y-66585395D01*
X184783186Y-66673630D01*
X184814524Y-66806889D01*
X184796395Y-66937190D01*
X184775395Y-67000182D01*
X184742235Y-67149235D01*
X184730380Y-67341439D01*
X184737080Y-67561768D01*
X184759585Y-67795196D01*
X184795147Y-68026696D01*
X184841015Y-68241241D01*
X184894439Y-68423806D01*
X184952671Y-68559364D01*
X185012961Y-68632888D01*
X185072559Y-68629352D01*
X185073381Y-68628680D01*
X185132286Y-68622988D01*
X185184905Y-68709004D01*
X185231273Y-68886849D01*
X185271426Y-69156646D01*
X185295734Y-69398896D01*
X185315429Y-69635769D01*
X185324986Y-69803936D01*
X185322284Y-69926708D01*
X185305197Y-70027395D01*
X185271604Y-70129305D01*
X185219381Y-70255749D01*
X185217228Y-70260815D01*
X185140130Y-70424195D01*
X185061804Y-70561325D01*
X185001317Y-70640168D01*
X184932837Y-70732721D01*
X184912454Y-70804477D01*
X184892941Y-70908582D01*
X184843143Y-71045331D01*
X184776170Y-71188257D01*
X184705135Y-71310895D01*
X184643149Y-71386780D01*
X184617926Y-71399000D01*
X184549122Y-71436696D01*
X184513154Y-71520223D01*
X184522863Y-71605238D01*
X184549603Y-71634924D01*
X184626368Y-71677870D01*
X184647862Y-71687203D01*
X184661439Y-71730810D01*
X184632010Y-71810574D01*
X184578112Y-71893779D01*
X184518283Y-71947712D01*
X184496818Y-71953760D01*
X184441097Y-71993432D01*
X184370111Y-72094392D01*
X184319592Y-72191791D01*
X184238516Y-72370467D01*
X184194002Y-72479601D01*
X184185299Y-72534146D01*
X184211657Y-72549050D01*
X184272326Y-72539266D01*
X184302486Y-72532564D01*
X184397492Y-72518930D01*
X184444764Y-72548940D01*
X184472091Y-72644533D01*
X184477031Y-72670372D01*
X184484544Y-72835230D01*
X184459228Y-73004548D01*
X184456611Y-73013631D01*
X184422044Y-73153915D01*
X184404871Y-73272430D01*
X184404454Y-73286267D01*
X184390856Y-73350352D01*
X184333436Y-73378759D01*
X184219727Y-73384818D01*
X184101453Y-73379925D01*
X184048891Y-73349711D01*
X184035413Y-73270877D01*
X184035000Y-73223182D01*
X184024180Y-73116334D01*
X183997574Y-73062937D01*
X183991930Y-73061545D01*
X183946136Y-73100648D01*
X183905936Y-73190761D01*
X183887075Y-73291088D01*
X183889425Y-73327091D01*
X183874178Y-73340619D01*
X183818643Y-73352001D01*
X183716567Y-73361395D01*
X183561698Y-73368956D01*
X183347782Y-73374842D01*
X183068566Y-73379209D01*
X182717797Y-73382216D01*
X182289222Y-73384018D01*
X181776589Y-73384772D01*
X181589388Y-73384818D01*
X179278273Y-73384818D01*
X179278273Y-69356394D01*
X181699916Y-69356394D01*
X181747859Y-69553278D01*
X181844936Y-69811812D01*
X181852152Y-69828818D01*
X181912701Y-69984690D01*
X181971277Y-70156281D01*
X181978633Y-70180068D01*
X182038027Y-70318641D01*
X182134306Y-70487279D01*
X182227385Y-70622992D01*
X182323557Y-70756844D01*
X182392237Y-70864788D01*
X182418635Y-70923567D01*
X182418636Y-70923717D01*
X182442875Y-70982103D01*
X182507190Y-71094660D01*
X182598975Y-71239692D01*
X182624802Y-71278580D01*
X182739161Y-71458562D01*
X182845165Y-71641472D01*
X182920863Y-71789328D01*
X182923891Y-71796096D01*
X182994976Y-71929493D01*
X183051092Y-71971901D01*
X183093870Y-71923194D01*
X183124941Y-71783243D01*
X183125348Y-71780289D01*
X183148426Y-71644631D01*
X183185360Y-71460863D01*
X183224773Y-71283545D01*
X183298786Y-70877745D01*
X183336922Y-70462455D01*
X183337389Y-70070180D01*
X183307428Y-69782636D01*
X183262148Y-69517860D01*
X183227985Y-69331808D01*
X183201233Y-69212034D01*
X183178189Y-69146096D01*
X183155148Y-69121550D01*
X183128407Y-69125953D01*
X183114333Y-69133967D01*
X183072564Y-69182442D01*
X183104715Y-69243535D01*
X183137788Y-69303429D01*
X183101745Y-69332615D01*
X183002323Y-69337365D01*
X182958455Y-69270705D01*
X182961957Y-69203050D01*
X182964581Y-69118090D01*
X182943565Y-69089278D01*
X182870039Y-69077747D01*
X182805005Y-69062205D01*
X182725871Y-69063177D01*
X182662420Y-69129033D01*
X182633660Y-69181703D01*
X182586796Y-69334794D01*
X182586762Y-69457175D01*
X182588615Y-69568815D01*
X182550391Y-69619466D01*
X182489194Y-69596602D01*
X182455220Y-69553519D01*
X182371666Y-69479253D01*
X182300385Y-69459364D01*
X182212026Y-69430482D01*
X182090908Y-69356586D01*
X182015517Y-69297727D01*
X181878866Y-69189066D01*
X181790613Y-69144638D01*
X181736095Y-69161186D01*
X181702875Y-69228274D01*
X181699916Y-69356394D01*
X179278273Y-69356394D01*
X179278273Y-69020636D01*
X183019000Y-69020636D01*
X183042091Y-69043727D01*
X183065182Y-69020636D01*
X183042091Y-68997545D01*
X183019000Y-69020636D01*
X179278273Y-69020636D01*
X179278273Y-68841111D01*
X181603238Y-68841111D01*
X181610454Y-68859000D01*
X181651954Y-68903057D01*
X181659362Y-68905182D01*
X181660875Y-68902456D01*
X182972818Y-68902456D01*
X183006342Y-68949484D01*
X183019000Y-68951364D01*
X183063981Y-68935607D01*
X183065182Y-68930998D01*
X183032820Y-68891569D01*
X183019000Y-68882091D01*
X182976444Y-68885752D01*
X182972818Y-68902456D01*
X181660875Y-68902456D01*
X181679198Y-68869451D01*
X181679727Y-68859000D01*
X181644225Y-68814593D01*
X181630820Y-68812818D01*
X181603238Y-68841111D01*
X179278273Y-68841111D01*
X179278273Y-58187536D01*
X181272942Y-58187536D01*
X181295235Y-58229647D01*
X181333363Y-58237182D01*
X181390840Y-58213749D01*
X181393785Y-58187536D01*
X181346107Y-58139823D01*
X181333363Y-58137891D01*
X181279214Y-58173844D01*
X181272942Y-58187536D01*
X179278273Y-58187536D01*
X179278273Y-57616508D01*
X180987000Y-57616508D01*
X181014026Y-57766035D01*
X181086393Y-57848531D01*
X181191039Y-57854528D01*
X181264091Y-57817322D01*
X181306879Y-57772177D01*
X181273176Y-57744088D01*
X181202633Y-57695486D01*
X181110404Y-57609047D01*
X181099994Y-57597985D01*
X180987000Y-57476125D01*
X180987000Y-57616508D01*
X179278273Y-57616508D01*
X179278273Y-57336851D01*
X182619436Y-57336851D01*
X182622721Y-57399868D01*
X182681011Y-57426127D01*
X182753933Y-57406733D01*
X182788091Y-57357512D01*
X182754556Y-57300467D01*
X182737885Y-57287967D01*
X182669210Y-57285927D01*
X182619436Y-57336851D01*
X179278273Y-57336851D01*
X179278273Y-55235364D01*
X179568330Y-55235364D01*
X179728646Y-55238370D01*
D11*
X214620000Y-108480000D02*
X214620000Y-105820000D01*
X212020000Y-108480000D02*
X214620000Y-108480000D01*
X212020000Y-105820000D02*
X214620000Y-105820000D01*
X212020000Y-108480000D02*
X212020000Y-105820000D01*
X210750000Y-108480000D02*
X209420000Y-108480000D01*
X209420000Y-108480000D02*
X209420000Y-107150000D01*
X204488950Y-93920400D02*
X204488950Y-96580400D01*
X207088950Y-93920400D02*
X204488950Y-93920400D01*
X207088950Y-96580400D02*
X204488950Y-96580400D01*
X207088950Y-93920400D02*
X207088950Y-96580400D01*
X208358950Y-93920400D02*
X209688950Y-93920400D01*
X209688950Y-93920400D02*
X209688950Y-95250400D01*
X164008830Y-93920400D02*
X164008830Y-96580400D01*
X166608830Y-93920400D02*
X164008830Y-93920400D01*
X166608830Y-96580400D02*
X164008830Y-96580400D01*
X166608830Y-93920400D02*
X166608830Y-96580400D01*
X167878830Y-93920400D02*
X169208830Y-93920400D01*
X169208830Y-93920400D02*
X169208830Y-95250400D01*
D12*
X147381240Y-41194800D02*
X168178760Y-41194800D01*
X168178760Y-40796020D02*
X147381240Y-40796020D01*
X147381240Y-34997200D02*
X168178760Y-34997200D01*
X168178760Y-35495040D02*
X147381240Y-35495040D01*
X157780000Y-35495040D02*
X157780000Y-34997200D01*
X150180320Y-35495040D02*
X150180320Y-34997200D01*
X152679680Y-35495040D02*
X152679680Y-34997200D01*
X155278100Y-35495040D02*
X155278100Y-34997200D01*
X160279360Y-35495040D02*
X160279360Y-34997200D01*
X162877780Y-35495040D02*
X162877780Y-34997200D01*
X167978100Y-34997200D02*
X167978100Y-35495040D01*
X147581900Y-35495040D02*
X147581900Y-34997200D01*
X165374600Y-34997200D02*
X165374600Y-35495040D01*
X147383780Y-34997200D02*
X147383780Y-41194800D01*
X168176220Y-41194800D02*
X168176220Y-34997200D01*
X221673760Y-34997200D02*
X200876240Y-34997200D01*
X200876240Y-35395980D02*
X221673760Y-35395980D01*
X221673760Y-41194800D02*
X200876240Y-41194800D01*
X200876240Y-40696960D02*
X221673760Y-40696960D01*
X211275000Y-40696960D02*
X211275000Y-41194800D01*
X218874680Y-40696960D02*
X218874680Y-41194800D01*
X216375320Y-40696960D02*
X216375320Y-41194800D01*
X213776900Y-40696960D02*
X213776900Y-41194800D01*
X208775640Y-40696960D02*
X208775640Y-41194800D01*
X206177220Y-40696960D02*
X206177220Y-41194800D01*
X201076900Y-41194800D02*
X201076900Y-40696960D01*
X221473100Y-40696960D02*
X221473100Y-41194800D01*
X203680400Y-41194800D02*
X203680400Y-40696960D01*
X221671220Y-41194800D02*
X221671220Y-34997200D01*
X200878780Y-34997200D02*
X200878780Y-41194800D01*
D13*
X79366000Y-46032000D02*
X81144000Y-46032000D01*
X90288000Y-46032000D02*
X92066000Y-46032000D01*
X92066000Y-46032000D02*
X92066000Y-47810000D01*
X92066000Y-56954000D02*
X92066000Y-58732000D01*
X92066000Y-58732000D02*
X90288000Y-58732000D01*
X81144000Y-58732000D02*
X79366000Y-58732000D01*
X79366000Y-58732000D02*
X79366000Y-56954000D01*
X79366000Y-47810000D02*
X79366000Y-46032000D01*
X98732000Y-46032000D02*
X100510000Y-46032000D01*
X109654000Y-46032000D02*
X111432000Y-46032000D01*
X111432000Y-46032000D02*
X111432000Y-47810000D01*
X111432000Y-56954000D02*
X111432000Y-58732000D01*
X111432000Y-58732000D02*
X109654000Y-58732000D01*
X100510000Y-58732000D02*
X98732000Y-58732000D01*
X98732000Y-58732000D02*
X98732000Y-56954000D01*
X98732000Y-47810000D02*
X98732000Y-46032000D01*
X117780000Y-46032000D02*
X119558000Y-46032000D01*
X128702000Y-46032000D02*
X130480000Y-46032000D01*
X130480000Y-46032000D02*
X130480000Y-47810000D01*
X130480000Y-56954000D02*
X130480000Y-58732000D01*
X130480000Y-58732000D02*
X128702000Y-58732000D01*
X119558000Y-58732000D02*
X117780000Y-58732000D01*
X117780000Y-58732000D02*
X117780000Y-56954000D01*
X117780000Y-47810000D02*
X117780000Y-46032000D01*
X136828000Y-46032000D02*
X138606000Y-46032000D01*
X147750000Y-46032000D02*
X149528000Y-46032000D01*
X149528000Y-46032000D02*
X149528000Y-47810000D01*
X149528000Y-56954000D02*
X149528000Y-58732000D01*
X149528000Y-58732000D02*
X147750000Y-58732000D01*
X138606000Y-58732000D02*
X136828000Y-58732000D01*
X136828000Y-58732000D02*
X136828000Y-56954000D01*
X136828000Y-47810000D02*
X136828000Y-46032000D01*
X155876000Y-46032000D02*
X157654000Y-46032000D01*
X166798000Y-46032000D02*
X168576000Y-46032000D01*
X168576000Y-46032000D02*
X168576000Y-47810000D01*
X168576000Y-56954000D02*
X168576000Y-58732000D01*
X168576000Y-58732000D02*
X166798000Y-58732000D01*
X157654000Y-58732000D02*
X155876000Y-58732000D01*
X155876000Y-58732000D02*
X155876000Y-56954000D01*
X155876000Y-47810000D02*
X155876000Y-46032000D01*
X213815000Y-58732000D02*
X212037000Y-58732000D01*
X202893000Y-58732000D02*
X201115000Y-58732000D01*
X201115000Y-58732000D02*
X201115000Y-56954000D01*
X201115000Y-47810000D02*
X201115000Y-46032000D01*
X201115000Y-46032000D02*
X202893000Y-46032000D01*
X212037000Y-46032000D02*
X213815000Y-46032000D01*
X213815000Y-46032000D02*
X213815000Y-47810000D01*
X213815000Y-56954000D02*
X213815000Y-58732000D01*
X220163000Y-46032000D02*
X221941000Y-46032000D01*
X231085000Y-46032000D02*
X232863000Y-46032000D01*
X232863000Y-46032000D02*
X232863000Y-47810000D01*
X232863000Y-56954000D02*
X232863000Y-58732000D01*
X232863000Y-58732000D02*
X231085000Y-58732000D01*
X221941000Y-58732000D02*
X220163000Y-58732000D01*
X220163000Y-58732000D02*
X220163000Y-56954000D01*
X220163000Y-47810000D02*
X220163000Y-46032000D01*
X239211000Y-46032000D02*
X240989000Y-46032000D01*
X250133000Y-46032000D02*
X251911000Y-46032000D01*
X251911000Y-46032000D02*
X251911000Y-47810000D01*
X251911000Y-56954000D02*
X251911000Y-58732000D01*
X251911000Y-58732000D02*
X250133000Y-58732000D01*
X240989000Y-58732000D02*
X239211000Y-58732000D01*
X239211000Y-58732000D02*
X239211000Y-56954000D01*
X239211000Y-47810000D02*
X239211000Y-46032000D01*
X258259000Y-46032000D02*
X260037000Y-46032000D01*
X269181000Y-46032000D02*
X270959000Y-46032000D01*
X270959000Y-46032000D02*
X270959000Y-47810000D01*
X270959000Y-56954000D02*
X270959000Y-58732000D01*
X270959000Y-58732000D02*
X269181000Y-58732000D01*
X260037000Y-58732000D02*
X258259000Y-58732000D01*
X258259000Y-58732000D02*
X258259000Y-56954000D01*
X258259000Y-47810000D02*
X258259000Y-46032000D01*
X277307000Y-46032000D02*
X279085000Y-46032000D01*
X288229000Y-46032000D02*
X290007000Y-46032000D01*
X290007000Y-46032000D02*
X290007000Y-47810000D01*
X290007000Y-56954000D02*
X290007000Y-58732000D01*
X290007000Y-58732000D02*
X288229000Y-58732000D01*
X279085000Y-58732000D02*
X277307000Y-58732000D01*
X277307000Y-58732000D02*
X277307000Y-56954000D01*
X277307000Y-47810000D02*
X277307000Y-46032000D01*
X84446000Y-65080000D02*
X86224000Y-65080000D01*
X95368000Y-65080000D02*
X97146000Y-65080000D01*
X97146000Y-65080000D02*
X97146000Y-66858000D01*
X97146000Y-76002000D02*
X97146000Y-77780000D01*
X97146000Y-77780000D02*
X95368000Y-77780000D01*
X86224000Y-77780000D02*
X84446000Y-77780000D01*
X84446000Y-77780000D02*
X84446000Y-76002000D01*
X84446000Y-66858000D02*
X84446000Y-65080000D01*
X103494000Y-65080000D02*
X105272000Y-65080000D01*
X114416000Y-65080000D02*
X116194000Y-65080000D01*
X116194000Y-65080000D02*
X116194000Y-66858000D01*
X116194000Y-76002000D02*
X116194000Y-77780000D01*
X116194000Y-77780000D02*
X114416000Y-77780000D01*
X105272000Y-77780000D02*
X103494000Y-77780000D01*
X103494000Y-77780000D02*
X103494000Y-76002000D01*
X103494000Y-66858000D02*
X103494000Y-65080000D01*
X122542000Y-65080000D02*
X124320000Y-65080000D01*
X133464000Y-65080000D02*
X135242000Y-65080000D01*
X135242000Y-65080000D02*
X135242000Y-66858000D01*
X135242000Y-76002000D02*
X135242000Y-77780000D01*
X135242000Y-77780000D02*
X133464000Y-77780000D01*
X124320000Y-77780000D02*
X122542000Y-77780000D01*
X122542000Y-77780000D02*
X122542000Y-76002000D01*
X122542000Y-66858000D02*
X122542000Y-65080000D01*
X141272000Y-65080000D02*
X143050000Y-65080000D01*
X152194000Y-65080000D02*
X153972000Y-65080000D01*
X153972000Y-65080000D02*
X153972000Y-66858000D01*
X153972000Y-76002000D02*
X153972000Y-77780000D01*
X153972000Y-77780000D02*
X152194000Y-77780000D01*
X143050000Y-77780000D02*
X141272000Y-77780000D01*
X141272000Y-77780000D02*
X141272000Y-76002000D01*
X141272000Y-66858000D02*
X141272000Y-65080000D01*
X160320000Y-65080000D02*
X162098000Y-65080000D01*
X171242000Y-65080000D02*
X173020000Y-65080000D01*
X173020000Y-65080000D02*
X173020000Y-66858000D01*
X173020000Y-76002000D02*
X173020000Y-77780000D01*
X173020000Y-77780000D02*
X171242000Y-77780000D01*
X162098000Y-77780000D02*
X160320000Y-77780000D01*
X160320000Y-77780000D02*
X160320000Y-76002000D01*
X160320000Y-66858000D02*
X160320000Y-65080000D01*
X205559000Y-65398000D02*
X207337000Y-65398000D01*
X216481000Y-65398000D02*
X218259000Y-65398000D01*
X218259000Y-65398000D02*
X218259000Y-67176000D01*
X218259000Y-76320000D02*
X218259000Y-78098000D01*
X218259000Y-78098000D02*
X216481000Y-78098000D01*
X207337000Y-78098000D02*
X205559000Y-78098000D01*
X205559000Y-78098000D02*
X205559000Y-76320000D01*
X205559000Y-67176000D02*
X205559000Y-65398000D01*
X224607000Y-65080000D02*
X226385000Y-65080000D01*
X235529000Y-65080000D02*
X237307000Y-65080000D01*
X237307000Y-65080000D02*
X237307000Y-66858000D01*
X237307000Y-76002000D02*
X237307000Y-77780000D01*
X237307000Y-77780000D02*
X235529000Y-77780000D01*
X226385000Y-77780000D02*
X224607000Y-77780000D01*
X224607000Y-77780000D02*
X224607000Y-76002000D01*
X224607000Y-66858000D02*
X224607000Y-65080000D01*
X243655000Y-65080000D02*
X245433000Y-65080000D01*
X254577000Y-65080000D02*
X256355000Y-65080000D01*
X256355000Y-65080000D02*
X256355000Y-66858000D01*
X256355000Y-76002000D02*
X256355000Y-77780000D01*
X256355000Y-77780000D02*
X254577000Y-77780000D01*
X245433000Y-77780000D02*
X243655000Y-77780000D01*
X243655000Y-77780000D02*
X243655000Y-76002000D01*
X243655000Y-66858000D02*
X243655000Y-65080000D01*
X262703000Y-65080000D02*
X264481000Y-65080000D01*
X273625000Y-65080000D02*
X275403000Y-65080000D01*
X275403000Y-65080000D02*
X275403000Y-66858000D01*
X275403000Y-76002000D02*
X275403000Y-77780000D01*
X275403000Y-77780000D02*
X273625000Y-77780000D01*
X264481000Y-77780000D02*
X262703000Y-77780000D01*
X262703000Y-77780000D02*
X262703000Y-76002000D01*
X262703000Y-66858000D02*
X262703000Y-65080000D01*
X93652000Y-84128000D02*
X95430000Y-84128000D01*
X104574000Y-84128000D02*
X106352000Y-84128000D01*
X106352000Y-84128000D02*
X106352000Y-85906000D01*
X106352000Y-95050000D02*
X106352000Y-96828000D01*
X106352000Y-96828000D02*
X104574000Y-96828000D01*
X95430000Y-96828000D02*
X93652000Y-96828000D01*
X93652000Y-96828000D02*
X93652000Y-95050000D01*
X93652000Y-85906000D02*
X93652000Y-84128000D01*
X112700000Y-84128000D02*
X114478000Y-84128000D01*
X123622000Y-84128000D02*
X125400000Y-84128000D01*
X125400000Y-84128000D02*
X125400000Y-85906000D01*
X125400000Y-95050000D02*
X125400000Y-96828000D01*
X125400000Y-96828000D02*
X123622000Y-96828000D01*
X114478000Y-96828000D02*
X112700000Y-96828000D01*
X112700000Y-96828000D02*
X112700000Y-95050000D01*
X112700000Y-85906000D02*
X112700000Y-84128000D01*
X131748000Y-84128000D02*
X133526000Y-84128000D01*
X142670000Y-84128000D02*
X144448000Y-84128000D01*
X144448000Y-84128000D02*
X144448000Y-85906000D01*
X144448000Y-95050000D02*
X144448000Y-96828000D01*
X144448000Y-96828000D02*
X142670000Y-96828000D01*
X133526000Y-96828000D02*
X131748000Y-96828000D01*
X131748000Y-96828000D02*
X131748000Y-95050000D01*
X131748000Y-85906000D02*
X131748000Y-84128000D01*
X150796000Y-84128000D02*
X152574000Y-84128000D01*
X161718000Y-84128000D02*
X163496000Y-84128000D01*
X163496000Y-84128000D02*
X163496000Y-85906000D01*
X163496000Y-95050000D02*
X163496000Y-96828000D01*
X163496000Y-96828000D02*
X161718000Y-96828000D01*
X152574000Y-96828000D02*
X150796000Y-96828000D01*
X150796000Y-96828000D02*
X150796000Y-95050000D01*
X150796000Y-85906000D02*
X150796000Y-84128000D01*
X215083000Y-84128000D02*
X216861000Y-84128000D01*
X226005000Y-84128000D02*
X227783000Y-84128000D01*
X227783000Y-84128000D02*
X227783000Y-85906000D01*
X227783000Y-95050000D02*
X227783000Y-96828000D01*
X227783000Y-96828000D02*
X226005000Y-96828000D01*
X216861000Y-96828000D02*
X215083000Y-96828000D01*
X215083000Y-96828000D02*
X215083000Y-95050000D01*
X215083000Y-85906000D02*
X215083000Y-84128000D01*
X234131000Y-84128000D02*
X235909000Y-84128000D01*
X245053000Y-84128000D02*
X246831000Y-84128000D01*
X246831000Y-84128000D02*
X246831000Y-85906000D01*
X246831000Y-95050000D02*
X246831000Y-96828000D01*
X246831000Y-96828000D02*
X245053000Y-96828000D01*
X235909000Y-96828000D02*
X234131000Y-96828000D01*
X234131000Y-96828000D02*
X234131000Y-95050000D01*
X234131000Y-85906000D02*
X234131000Y-84128000D01*
X253179000Y-84128000D02*
X254957000Y-84128000D01*
X264101000Y-84128000D02*
X265879000Y-84128000D01*
X265879000Y-84128000D02*
X265879000Y-85906000D01*
X265879000Y-95050000D02*
X265879000Y-96828000D01*
X265879000Y-96828000D02*
X264101000Y-96828000D01*
X254957000Y-96828000D02*
X253179000Y-96828000D01*
X253179000Y-96828000D02*
X253179000Y-95050000D01*
X253179000Y-85906000D02*
X253179000Y-84128000D01*
X205559000Y-112700000D02*
X207337000Y-112700000D01*
X216481000Y-112700000D02*
X218259000Y-112700000D01*
X218259000Y-112700000D02*
X218259000Y-114478000D01*
X218259000Y-123622000D02*
X218259000Y-125400000D01*
X218259000Y-125400000D02*
X216481000Y-125400000D01*
X207337000Y-125400000D02*
X205559000Y-125400000D01*
X205559000Y-125400000D02*
X205559000Y-123622000D01*
X205559000Y-114478000D02*
X205559000Y-112700000D01*
%LPC*%
D14*
X178575000Y-45239000D03*
X178575000Y-46509000D03*
X178575000Y-47779000D03*
X178575000Y-43969000D03*
X178575000Y-42699000D03*
X195242000Y-42699000D03*
X195242000Y-43969000D03*
X195242000Y-47779000D03*
X195242000Y-46509000D03*
X195242000Y-45239000D03*
X195242000Y-85716000D03*
X195242000Y-86986000D03*
X195242000Y-88256000D03*
X195242000Y-84446000D03*
X195242000Y-83176000D03*
X178575000Y-83176000D03*
X178575000Y-84446000D03*
X178575000Y-88256000D03*
X178575000Y-86986000D03*
X178575000Y-85716000D03*
D15*
X210750000Y-107150000D03*
D16*
X213290000Y-107150000D03*
D15*
X208358950Y-95250400D03*
D16*
X205818950Y-95250400D03*
D15*
X167878830Y-95250400D03*
D16*
X165338830Y-95250400D03*
D17*
X108323426Y-115515014D03*
X107156700Y-115031740D03*
X105989974Y-115515014D03*
X105506700Y-116681740D03*
X105989974Y-117848466D03*
X107156700Y-118331740D03*
X108323426Y-117848466D03*
X108806700Y-116681740D03*
D18*
X107156700Y-116681740D03*
X173831980Y-97631660D03*
D17*
X175481980Y-97631660D03*
X174998706Y-98798386D03*
X173831980Y-99281660D03*
X172665254Y-98798386D03*
X172181980Y-97631660D03*
X172665254Y-96464934D03*
X173831980Y-95981660D03*
X174998706Y-96464934D03*
X201191266Y-96464934D03*
X200024540Y-95981660D03*
X198857814Y-96464934D03*
X198374540Y-97631660D03*
X198857814Y-98798386D03*
X200024540Y-99281660D03*
X201191266Y-98798386D03*
X201674540Y-97631660D03*
D18*
X200024540Y-97631660D03*
X271434000Y-109526000D03*
D17*
X273084000Y-109526000D03*
X272600726Y-110692726D03*
X271434000Y-111176000D03*
X270267274Y-110692726D03*
X269784000Y-109526000D03*
X270267274Y-108359274D03*
X271434000Y-107876000D03*
X272600726Y-108359274D03*
D18*
X271434000Y-128574000D03*
D17*
X273084000Y-128574000D03*
X272600726Y-129740726D03*
X271434000Y-130224000D03*
X270267274Y-129740726D03*
X269784000Y-128574000D03*
X270267274Y-127407274D03*
X271434000Y-126924000D03*
X272600726Y-127407274D03*
D18*
X152384000Y-128574000D03*
D17*
X154034000Y-128574000D03*
X153550726Y-129740726D03*
X152384000Y-130224000D03*
X151217274Y-129740726D03*
X150734000Y-128574000D03*
X151217274Y-127407274D03*
X152384000Y-126924000D03*
X153550726Y-127407274D03*
D18*
X152384000Y-109526000D03*
D17*
X154034000Y-109526000D03*
X153550726Y-110692726D03*
X152384000Y-111176000D03*
X151217274Y-110692726D03*
X150734000Y-109526000D03*
X151217274Y-108359274D03*
X152384000Y-107876000D03*
X153550726Y-108359274D03*
D18*
X266672000Y-97621000D03*
D17*
X268322000Y-97621000D03*
X267838726Y-98787726D03*
X266672000Y-99271000D03*
X265505274Y-98787726D03*
X265022000Y-97621000D03*
X265505274Y-96454274D03*
X266672000Y-95971000D03*
X267838726Y-96454274D03*
D18*
X290482000Y-45239000D03*
D17*
X292132000Y-45239000D03*
X291648726Y-46405726D03*
X290482000Y-46889000D03*
X289315274Y-46405726D03*
X288832000Y-45239000D03*
X289315274Y-44072274D03*
X290482000Y-43589000D03*
X291648726Y-44072274D03*
D18*
X78573000Y-45239000D03*
D17*
X80223000Y-45239000D03*
X79739726Y-46405726D03*
X78573000Y-46889000D03*
X77406274Y-46405726D03*
X76923000Y-45239000D03*
X77406274Y-44072274D03*
X78573000Y-43589000D03*
X79739726Y-44072274D03*
D18*
X142860000Y-38096000D03*
D17*
X144510000Y-38096000D03*
X144026726Y-39262726D03*
X142860000Y-39746000D03*
X141693274Y-39262726D03*
X141210000Y-38096000D03*
X141693274Y-36929274D03*
X142860000Y-36446000D03*
X144026726Y-36929274D03*
D14*
X261910000Y-100256000D03*
X260640000Y-100256000D03*
X259370000Y-100256000D03*
X263180000Y-100256000D03*
X264450000Y-100256000D03*
X197369000Y-45239000D03*
X197369000Y-43969000D03*
X197369000Y-42699000D03*
X197369000Y-46509000D03*
X197369000Y-47779000D03*
X176448000Y-45239000D03*
X176448000Y-46509000D03*
X176448000Y-47779000D03*
X176448000Y-43969000D03*
X176448000Y-42699000D03*
X197369000Y-85716000D03*
X197369000Y-84446000D03*
X197369000Y-83176000D03*
X197369000Y-86986000D03*
X197369000Y-88256000D03*
X176448000Y-85716000D03*
X176448000Y-86986000D03*
X176448000Y-88256000D03*
X176448000Y-84446000D03*
X176448000Y-83176000D03*
X261910000Y-104764000D03*
X263180000Y-104764000D03*
X264450000Y-104764000D03*
X260640000Y-104764000D03*
X259370000Y-104764000D03*
X211909000Y-100256000D03*
X210639000Y-100256000D03*
X209369000Y-100256000D03*
X213179000Y-100256000D03*
X214449000Y-100256000D03*
X211909000Y-104510000D03*
X213179000Y-104510000D03*
X214449000Y-104510000D03*
X210639000Y-104510000D03*
X209369000Y-104510000D03*
X161908000Y-100256000D03*
X160638000Y-100256000D03*
X159368000Y-100256000D03*
X163178000Y-100256000D03*
X164448000Y-100256000D03*
D19*
X73016000Y-101906000D03*
X75556000Y-101906000D03*
X78096000Y-101906000D03*
X80636000Y-101906000D03*
X83176000Y-101906000D03*
X85716000Y-101906000D03*
X88256000Y-101906000D03*
X90796000Y-101906000D03*
X93336000Y-101906000D03*
X95876000Y-101906000D03*
X98416000Y-101906000D03*
X100956000Y-101906000D03*
X100956000Y-117146000D03*
X98416000Y-117146000D03*
X95876000Y-117146000D03*
X93336000Y-117146000D03*
X90796000Y-117146000D03*
X88256000Y-117146000D03*
X85716000Y-117146000D03*
X83176000Y-117146000D03*
X80636000Y-117146000D03*
X78096000Y-117146000D03*
X75556000Y-117146000D03*
X73016000Y-117146000D03*
D20*
X159050000Y-38096000D03*
D21*
X166670000Y-38096000D03*
D20*
X164130000Y-38096000D03*
X161590000Y-38096000D03*
X156510000Y-38096000D03*
X153970000Y-38096000D03*
X151430000Y-38096000D03*
X148890000Y-38096000D03*
X210005000Y-38096000D03*
D21*
X202385000Y-38096000D03*
D20*
X204925000Y-38096000D03*
X207465000Y-38096000D03*
X212545000Y-38096000D03*
X215085000Y-38096000D03*
X217625000Y-38096000D03*
X220165000Y-38096000D03*
D22*
X88256000Y-47302000D03*
X81906000Y-49842000D03*
X107622000Y-47302000D03*
X101272000Y-49842000D03*
X126670000Y-47302000D03*
X120320000Y-49842000D03*
X145718000Y-47302000D03*
X139368000Y-49842000D03*
X164766000Y-47302000D03*
X158416000Y-49842000D03*
X204925000Y-57462000D03*
X211275000Y-54922000D03*
X229053000Y-47302000D03*
X222703000Y-49842000D03*
X248101000Y-47302000D03*
X241751000Y-49842000D03*
X267149000Y-47302000D03*
X260799000Y-49842000D03*
X286197000Y-47302000D03*
X279847000Y-49842000D03*
X93336000Y-66350000D03*
X86986000Y-68890000D03*
X112384000Y-66350000D03*
X106034000Y-68890000D03*
X131432000Y-66350000D03*
X125082000Y-68890000D03*
X150162000Y-66350000D03*
X143812000Y-68890000D03*
X169210000Y-66350000D03*
X162860000Y-68890000D03*
X214449000Y-66668000D03*
X208099000Y-69208000D03*
X233497000Y-66350000D03*
X227147000Y-68890000D03*
X252545000Y-66350000D03*
X246195000Y-68890000D03*
X271593000Y-66350000D03*
X265243000Y-68890000D03*
X102542000Y-85398000D03*
X96192000Y-87938000D03*
X121590000Y-85398000D03*
X115240000Y-87938000D03*
X140638000Y-85398000D03*
X134288000Y-87938000D03*
X159686000Y-85398000D03*
X153336000Y-87938000D03*
X223973000Y-85398000D03*
X217623000Y-87938000D03*
X243021000Y-85398000D03*
X236671000Y-87938000D03*
X262069000Y-85398000D03*
X255719000Y-87938000D03*
X214449000Y-113970000D03*
X208099000Y-116510000D03*
D14*
X161908000Y-104510000D03*
X163178000Y-104510000D03*
X164448000Y-104510000D03*
X160638000Y-104510000D03*
X159368000Y-104510000D03*
D18*
X226195000Y-38096000D03*
D17*
X227845000Y-38096000D03*
X227361726Y-39262726D03*
X226195000Y-39746000D03*
X225028274Y-39262726D03*
X224545000Y-38096000D03*
X225028274Y-36929274D03*
X226195000Y-36446000D03*
X227361726Y-36929274D03*
M02*
