G04 #@! TF.GenerationSoftware,KiCad,Pcbnew,(5.1.4)-1*
G04 #@! TF.CreationDate,2021-04-23T00:27:45+10:00*
G04 #@! TF.ProjectId,pain27divided3,7061696e-3237-4646-9976-69646564332e,rev?*
G04 #@! TF.SameCoordinates,Original*
G04 #@! TF.FileFunction,Soldermask,Top*
G04 #@! TF.FilePolarity,Negative*
%FSLAX46Y46*%
G04 Gerber Fmt 4.6, Leading zero omitted, Abs format (unit mm)*
G04 Created by KiCad (PCBNEW (5.1.4)-1) date 2021-04-23 00:27:45*
%MOMM*%
%LPD*%
G04 APERTURE LIST*
%ADD10C,1.187400*%
%ADD11R,2.100000X2.100000*%
%ADD12O,2.100000X2.100000*%
%ADD13C,1.100000*%
%ADD14C,4.800000*%
%ADD15C,2.082800*%
%ADD16O,2.398980X2.398980*%
%ADD17R,2.398980X2.398980*%
%ADD18C,2.686000*%
G04 APERTURE END LIST*
D10*
X178575000Y-45239000D03*
X178575000Y-46509000D03*
X178575000Y-47779000D03*
X178575000Y-43969000D03*
X178575000Y-42699000D03*
X195242000Y-42699000D03*
X195242000Y-43969000D03*
X195242000Y-47779000D03*
X195242000Y-46509000D03*
X195242000Y-45239000D03*
X195242000Y-85716000D03*
X195242000Y-86986000D03*
X195242000Y-88256000D03*
X195242000Y-84446000D03*
X195242000Y-83176000D03*
X178575000Y-83176000D03*
X178575000Y-84446000D03*
X178575000Y-88256000D03*
X178575000Y-86986000D03*
X178575000Y-85716000D03*
D11*
X210750000Y-107150000D03*
D12*
X213290000Y-107150000D03*
D11*
X208358950Y-95250400D03*
D12*
X205818950Y-95250400D03*
D11*
X167878830Y-95250400D03*
D12*
X165338830Y-95250400D03*
D13*
X108323426Y-115515014D03*
X107156700Y-115031740D03*
X105989974Y-115515014D03*
X105506700Y-116681740D03*
X105989974Y-117848466D03*
X107156700Y-118331740D03*
X108323426Y-117848466D03*
X108806700Y-116681740D03*
D14*
X107156700Y-116681740D03*
X173831980Y-97631660D03*
D13*
X175481980Y-97631660D03*
X174998706Y-98798386D03*
X173831980Y-99281660D03*
X172665254Y-98798386D03*
X172181980Y-97631660D03*
X172665254Y-96464934D03*
X173831980Y-95981660D03*
X174998706Y-96464934D03*
X201191266Y-96464934D03*
X200024540Y-95981660D03*
X198857814Y-96464934D03*
X198374540Y-97631660D03*
X198857814Y-98798386D03*
X200024540Y-99281660D03*
X201191266Y-98798386D03*
X201674540Y-97631660D03*
D14*
X200024540Y-97631660D03*
X271434000Y-109526000D03*
D13*
X273084000Y-109526000D03*
X272600726Y-110692726D03*
X271434000Y-111176000D03*
X270267274Y-110692726D03*
X269784000Y-109526000D03*
X270267274Y-108359274D03*
X271434000Y-107876000D03*
X272600726Y-108359274D03*
D14*
X271434000Y-128574000D03*
D13*
X273084000Y-128574000D03*
X272600726Y-129740726D03*
X271434000Y-130224000D03*
X270267274Y-129740726D03*
X269784000Y-128574000D03*
X270267274Y-127407274D03*
X271434000Y-126924000D03*
X272600726Y-127407274D03*
D14*
X152384000Y-128574000D03*
D13*
X154034000Y-128574000D03*
X153550726Y-129740726D03*
X152384000Y-130224000D03*
X151217274Y-129740726D03*
X150734000Y-128574000D03*
X151217274Y-127407274D03*
X152384000Y-126924000D03*
X153550726Y-127407274D03*
D14*
X152384000Y-109526000D03*
D13*
X154034000Y-109526000D03*
X153550726Y-110692726D03*
X152384000Y-111176000D03*
X151217274Y-110692726D03*
X150734000Y-109526000D03*
X151217274Y-108359274D03*
X152384000Y-107876000D03*
X153550726Y-108359274D03*
D14*
X266672000Y-97621000D03*
D13*
X268322000Y-97621000D03*
X267838726Y-98787726D03*
X266672000Y-99271000D03*
X265505274Y-98787726D03*
X265022000Y-97621000D03*
X265505274Y-96454274D03*
X266672000Y-95971000D03*
X267838726Y-96454274D03*
D14*
X290482000Y-45239000D03*
D13*
X292132000Y-45239000D03*
X291648726Y-46405726D03*
X290482000Y-46889000D03*
X289315274Y-46405726D03*
X288832000Y-45239000D03*
X289315274Y-44072274D03*
X290482000Y-43589000D03*
X291648726Y-44072274D03*
D14*
X78573000Y-45239000D03*
D13*
X80223000Y-45239000D03*
X79739726Y-46405726D03*
X78573000Y-46889000D03*
X77406274Y-46405726D03*
X76923000Y-45239000D03*
X77406274Y-44072274D03*
X78573000Y-43589000D03*
X79739726Y-44072274D03*
D14*
X142860000Y-38096000D03*
D13*
X144510000Y-38096000D03*
X144026726Y-39262726D03*
X142860000Y-39746000D03*
X141693274Y-39262726D03*
X141210000Y-38096000D03*
X141693274Y-36929274D03*
X142860000Y-36446000D03*
X144026726Y-36929274D03*
D10*
X261910000Y-100256000D03*
X260640000Y-100256000D03*
X259370000Y-100256000D03*
X263180000Y-100256000D03*
X264450000Y-100256000D03*
X197369000Y-45239000D03*
X197369000Y-43969000D03*
X197369000Y-42699000D03*
X197369000Y-46509000D03*
X197369000Y-47779000D03*
X176448000Y-45239000D03*
X176448000Y-46509000D03*
X176448000Y-47779000D03*
X176448000Y-43969000D03*
X176448000Y-42699000D03*
X197369000Y-85716000D03*
X197369000Y-84446000D03*
X197369000Y-83176000D03*
X197369000Y-86986000D03*
X197369000Y-88256000D03*
X176448000Y-85716000D03*
X176448000Y-86986000D03*
X176448000Y-88256000D03*
X176448000Y-84446000D03*
X176448000Y-83176000D03*
X261910000Y-104764000D03*
X263180000Y-104764000D03*
X264450000Y-104764000D03*
X260640000Y-104764000D03*
X259370000Y-104764000D03*
X211909000Y-100256000D03*
X210639000Y-100256000D03*
X209369000Y-100256000D03*
X213179000Y-100256000D03*
X214449000Y-100256000D03*
X211909000Y-104510000D03*
X213179000Y-104510000D03*
X214449000Y-104510000D03*
X210639000Y-104510000D03*
X209369000Y-104510000D03*
X161908000Y-100256000D03*
X160638000Y-100256000D03*
X159368000Y-100256000D03*
X163178000Y-100256000D03*
X164448000Y-100256000D03*
D15*
X73016000Y-101906000D03*
X75556000Y-101906000D03*
X78096000Y-101906000D03*
X80636000Y-101906000D03*
X83176000Y-101906000D03*
X85716000Y-101906000D03*
X88256000Y-101906000D03*
X90796000Y-101906000D03*
X93336000Y-101906000D03*
X95876000Y-101906000D03*
X98416000Y-101906000D03*
X100956000Y-101906000D03*
X100956000Y-117146000D03*
X98416000Y-117146000D03*
X95876000Y-117146000D03*
X93336000Y-117146000D03*
X90796000Y-117146000D03*
X88256000Y-117146000D03*
X85716000Y-117146000D03*
X83176000Y-117146000D03*
X80636000Y-117146000D03*
X78096000Y-117146000D03*
X75556000Y-117146000D03*
X73016000Y-117146000D03*
D16*
X159050000Y-38096000D03*
D17*
X166670000Y-38096000D03*
D16*
X164130000Y-38096000D03*
X161590000Y-38096000D03*
X156510000Y-38096000D03*
X153970000Y-38096000D03*
X151430000Y-38096000D03*
X148890000Y-38096000D03*
X210005000Y-38096000D03*
D17*
X202385000Y-38096000D03*
D16*
X204925000Y-38096000D03*
X207465000Y-38096000D03*
X212545000Y-38096000D03*
X215085000Y-38096000D03*
X217625000Y-38096000D03*
X220165000Y-38096000D03*
D18*
X88256000Y-47302000D03*
X81906000Y-49842000D03*
X107622000Y-47302000D03*
X101272000Y-49842000D03*
X126670000Y-47302000D03*
X120320000Y-49842000D03*
X145718000Y-47302000D03*
X139368000Y-49842000D03*
X164766000Y-47302000D03*
X158416000Y-49842000D03*
X204925000Y-57462000D03*
X211275000Y-54922000D03*
X229053000Y-47302000D03*
X222703000Y-49842000D03*
X248101000Y-47302000D03*
X241751000Y-49842000D03*
X267149000Y-47302000D03*
X260799000Y-49842000D03*
X286197000Y-47302000D03*
X279847000Y-49842000D03*
X93336000Y-66350000D03*
X86986000Y-68890000D03*
X112384000Y-66350000D03*
X106034000Y-68890000D03*
X131432000Y-66350000D03*
X125082000Y-68890000D03*
X150162000Y-66350000D03*
X143812000Y-68890000D03*
X169210000Y-66350000D03*
X162860000Y-68890000D03*
X214449000Y-66668000D03*
X208099000Y-69208000D03*
X233497000Y-66350000D03*
X227147000Y-68890000D03*
X252545000Y-66350000D03*
X246195000Y-68890000D03*
X271593000Y-66350000D03*
X265243000Y-68890000D03*
X102542000Y-85398000D03*
X96192000Y-87938000D03*
X121590000Y-85398000D03*
X115240000Y-87938000D03*
X140638000Y-85398000D03*
X134288000Y-87938000D03*
X159686000Y-85398000D03*
X153336000Y-87938000D03*
X223973000Y-85398000D03*
X217623000Y-87938000D03*
X243021000Y-85398000D03*
X236671000Y-87938000D03*
X262069000Y-85398000D03*
X255719000Y-87938000D03*
X214449000Y-113970000D03*
X208099000Y-116510000D03*
D10*
X161908000Y-104510000D03*
X163178000Y-104510000D03*
X164448000Y-104510000D03*
X160638000Y-104510000D03*
X159368000Y-104510000D03*
D14*
X226195000Y-38096000D03*
D13*
X227845000Y-38096000D03*
X227361726Y-39262726D03*
X226195000Y-39746000D03*
X225028274Y-39262726D03*
X224545000Y-38096000D03*
X225028274Y-36929274D03*
X226195000Y-36446000D03*
X227361726Y-36929274D03*
M02*
