M48
; DRILL file {KiCad (5.1.4)-1} date 23-Apr-21 12:27:49 AM
; FORMAT={-:-/ absolute / inch / decimal}
; #@! TF.CreationDate,2021-04-23T00:27:49+10:00
; #@! TF.GenerationSoftware,Kicad,Pcbnew,(5.1.4)-1
; #@! TF.FileFunction,Plated,1,2,PTH
FMAT,2
INCH
T1C0.0157
T2C0.0394
T3C0.0400
T4C0.0432
T5C0.0590
T6C0.0866
%
G90
G05
T1
X3.4845Y-4.151
X3.7183Y-4.2796
X4.0308Y-4.4995
X5.062Y-2.4372
X5.062Y-3.7496
X5.6291Y-3.7541
X4.1538Y-4.5938
X4.1728Y-4.5478
X4.1728Y-4.6397
X4.2188Y-4.5288
X4.2188Y-4.6587
X4.2647Y-4.5478
X4.2647Y-4.6397
X4.2837Y-4.5938
X6.7788Y-3.8438
X6.7978Y-3.7978
X6.7978Y-3.8897
X6.8438Y-3.7788
X6.8438Y-3.9087
X6.8897Y-3.7978
X6.8897Y-3.8897
X6.9087Y-3.8438
X5.9344Y-4.312
X5.9534Y-4.2661
X5.9534Y-4.358
X5.9994Y-4.2471
X5.9994Y-4.377
X6.0453Y-4.2661
X6.0453Y-4.358
X6.0643Y-4.312
X10.6214Y-4.312
X10.6404Y-4.2661
X10.6404Y-4.358
X10.6864Y-4.2471
X10.6864Y-4.377
X10.7323Y-4.2661
X10.7323Y-4.358
X10.7513Y-4.312
X5.9344Y-5.062
X5.9534Y-5.016
X5.9534Y-5.1079
X5.9994Y-4.997
X5.9994Y-5.1269
X6.0453Y-5.016
X6.0453Y-5.1079
X6.0643Y-5.062
X3.0285Y-1.7811
X3.0475Y-1.7351
X3.0475Y-1.827
X3.0934Y-1.7161
X3.0934Y-1.846
X3.1394Y-1.7351
X3.1394Y-1.827
X3.1584Y-1.7811
X10.4339Y-3.8433
X10.453Y-3.7974
X10.453Y-3.8893
X10.4989Y-3.7784
X10.4989Y-3.9083
X10.5448Y-3.7974
X10.5448Y-3.8893
X10.5639Y-3.8433
X7.81Y-3.8438
X7.829Y-3.7978
X7.829Y-3.8897
X7.875Y-3.7788
X7.875Y-3.9087
X7.9209Y-3.7978
X7.9209Y-3.8897
X7.9399Y-3.8438
X5.5594Y-1.4998
X5.5785Y-1.4539
X5.5785Y-1.5458
X5.6244Y-1.4349
X5.6244Y-1.5648
X5.6703Y-1.4539
X5.6703Y-1.5458
X5.6894Y-1.4998
X11.3713Y-1.7811
X11.3904Y-1.7351
X11.3904Y-1.827
X11.4363Y-1.7161
X11.4363Y-1.846
X11.4822Y-1.7351
X11.4822Y-1.827
X11.5013Y-1.7811
X8.8404Y-1.4998
X8.8594Y-1.4539
X8.8594Y-1.5458
X8.9053Y-1.4349
X8.9053Y-1.5648
X8.9512Y-1.4539
X8.9512Y-1.5458
X8.9703Y-1.4998
X10.6214Y-5.062
X10.6404Y-5.016
X10.6404Y-5.1079
X10.6864Y-4.997
X10.6864Y-5.1269
X10.7323Y-5.016
X10.7323Y-5.1079
X10.7513Y-5.062
T2
X8.1031Y-3.75
X8.2031Y-3.75
X6.5094Y-3.75
X6.6094Y-3.75
X8.2972Y-4.2185
X8.3972Y-4.2185
T3
X2.8746Y-4.012
X2.8746Y-4.612
X2.9746Y-4.012
X2.9746Y-4.612
X3.0746Y-4.012
X3.0746Y-4.612
X3.1746Y-4.012
X3.1746Y-4.612
X3.2746Y-4.012
X3.2746Y-4.612
X3.3746Y-4.012
X3.3746Y-4.612
X3.4746Y-4.012
X3.4746Y-4.612
X3.5746Y-4.012
X3.5746Y-4.612
X3.6746Y-4.012
X3.6746Y-4.612
X3.7746Y-4.012
X3.7746Y-4.612
X3.8746Y-4.012
X3.8746Y-4.612
X3.9746Y-4.012
X3.9746Y-4.612
T4
X7.9679Y-1.4998
X8.0679Y-1.4998
X8.1679Y-1.4998
X8.2679Y-1.4998
X8.3679Y-1.4998
X8.4679Y-1.4998
X8.5679Y-1.4998
X8.6679Y-1.4998
X5.8618Y-1.4998
X5.9618Y-1.4998
X6.0618Y-1.4998
X6.1618Y-1.4998
X6.2618Y-1.4998
X6.3618Y-1.4998
X6.4618Y-1.4998
X6.5618Y-1.4998
T5
X6.2369Y-1.9623
X6.4869Y-1.8623
X9.5178Y-1.9623
X9.7678Y-1.8623
X6.0369Y-3.4621
X6.2869Y-3.3621
X8.9428Y-2.7122
X9.1928Y-2.6122
X8.5678Y-3.4621
X8.8178Y-3.3621
X3.9871Y-1.9623
X4.2371Y-1.8623
X5.2869Y-3.4621
X5.5369Y-3.3621
X10.0677Y-3.4621
X10.3177Y-3.3621
X10.4426Y-2.7122
X10.6926Y-2.6122
X8.0679Y-2.2623
X8.3179Y-2.1623
X10.2677Y-1.9623
X10.5177Y-1.8623
X3.4246Y-2.7122
X3.6746Y-2.6122
X4.1746Y-2.7122
X4.4246Y-2.6122
X4.537Y-3.4621
X4.787Y-3.3621
X9.3178Y-3.4621
X9.5678Y-3.3621
X8.1929Y-4.587
X8.4429Y-4.487
X5.6619Y-2.7122
X5.9119Y-2.6122
X5.4869Y-1.9623
X5.7369Y-1.8623
X8.7678Y-1.9623
X9.0178Y-1.8623
X4.737Y-1.9623
X4.987Y-1.8623
X8.1929Y-2.7247
X8.4429Y-2.6247
X6.4118Y-2.7122
X6.6618Y-2.6122
X11.0176Y-1.9623
X11.2676Y-1.8623
X4.9245Y-2.7122
X5.1745Y-2.6122
X3.7871Y-3.4621
X4.0371Y-3.3621
X3.2246Y-1.9623
X3.4746Y-1.8623
X9.6927Y-2.7122
X9.9427Y-2.6122
T6
X11.4363Y-1.7811
X8.9053Y-1.4998
X10.6864Y-5.062
X4.2188Y-4.5938
X6.8438Y-3.8438
X5.9994Y-4.312
X10.6864Y-4.312
X5.9994Y-5.062
X3.0934Y-1.7811
X10.4989Y-3.8433
X7.875Y-3.8438
X5.6244Y-1.4998
T0
M30
