G04 #@! TF.GenerationSoftware,KiCad,Pcbnew,(5.1.4)-1*
G04 #@! TF.CreationDate,2021-04-23T00:27:45+10:00*
G04 #@! TF.ProjectId,pain27divided3,7061696e-3237-4646-9976-69646564332e,rev?*
G04 #@! TF.SameCoordinates,Original*
G04 #@! TF.FileFunction,Profile,NP*
%FSLAX46Y46*%
G04 Gerber Fmt 4.6, Leading zero omitted, Abs format (unit mm)*
G04 Created by KiCad (PCBNEW (5.1.4)-1) date 2021-04-23 00:27:45*
%MOMM*%
%LPD*%
G04 APERTURE LIST*
%ADD10C,0.150000*%
G04 APERTURE END LIST*
D10*
X195242000Y-88097000D02*
X197623000Y-88097000D01*
X195242000Y-83335000D02*
X197623000Y-83335000D01*
X195242000Y-47620000D02*
X195242000Y-83335000D01*
X195242000Y-47620000D02*
X197623000Y-47620000D01*
X195242000Y-42858000D02*
X197623000Y-42858000D01*
X178575000Y-83335000D02*
X178575000Y-47620000D01*
X178575000Y-97621000D02*
X178575000Y-88097000D01*
X195242000Y-97621000D02*
X195242000Y-88097000D01*
X180956000Y-100002000D02*
X192861000Y-100002000D01*
X192861000Y-100002000D02*
G75*
G03X195242000Y-97621000I0J2381000D01*
G01*
X178575000Y-97621000D02*
G75*
G03X180956000Y-100002000I2381000J0D01*
G01*
X180956000Y-33334000D02*
G75*
G03X178575000Y-35715000I0J-2381000D01*
G01*
X195242000Y-35715000D02*
G75*
G03X192861000Y-33334000I-2381000J0D01*
G01*
X195242000Y-42858000D02*
X195242000Y-35715000D01*
X180956000Y-33334000D02*
X192861000Y-33334000D01*
X178575000Y-42858000D02*
X178575000Y-35715000D01*
X214290000Y-100002000D02*
X259529000Y-100002000D01*
X209528000Y-100002000D02*
X200004000Y-100002000D01*
X264291000Y-104764000D02*
X271434000Y-104764000D01*
X264291000Y-100002000D02*
X266672000Y-100002000D01*
X209528000Y-104764000D02*
X209528000Y-100002000D01*
X214290000Y-104764000D02*
X214290000Y-100002000D01*
X271434000Y-80954000D02*
X276196000Y-80954000D01*
X271434000Y-80954000D02*
G75*
G03X269053000Y-83335000I0J-2381000D01*
G01*
X276196000Y-80954000D02*
G75*
G03X278577000Y-78573000I0J2381000D01*
G01*
X230957000Y-40477000D02*
X230957000Y-35715000D01*
X138098000Y-40477000D02*
X138098000Y-35715000D01*
X83335000Y-80954000D02*
X88097000Y-80954000D01*
X90478000Y-83335000D02*
G75*
G03X88097000Y-80954000I-2381000J0D01*
G01*
X80954000Y-64287000D02*
X80954000Y-78573000D01*
X76192000Y-59525000D02*
G75*
G03X78573000Y-61906000I2381000J0D01*
G01*
X80954000Y-64287000D02*
G75*
G03X78573000Y-61906000I-2381000J0D01*
G01*
X80954000Y-78573000D02*
G75*
G03X83335000Y-80954000I2381000J0D01*
G01*
X266672000Y-100002000D02*
G75*
G03X269053000Y-97621000I0J2381000D01*
G01*
X278577000Y-64287000D02*
X278577000Y-78573000D01*
X280958000Y-61906000D02*
X290482000Y-61906000D01*
X280958000Y-61906000D02*
G75*
G03X278577000Y-64287000I0J-2381000D01*
G01*
X290482000Y-61906000D02*
G75*
G03X292863000Y-59525000I0J2381000D01*
G01*
X71430000Y-97621000D02*
X88097000Y-97621000D01*
X88097000Y-97621000D02*
G75*
G03X90478000Y-95240000I0J2381000D01*
G01*
X71430000Y-97621000D02*
G75*
G03X69049000Y-100002000I0J-2381000D01*
G01*
X69049000Y-116669000D02*
G75*
G03X71430000Y-119050000I2381000J0D01*
G01*
X140479000Y-119050000D02*
G75*
G03X142860000Y-116669000I0J2381000D01*
G01*
X145241000Y-100002000D02*
G75*
G03X142860000Y-102383000I0J-2381000D01*
G01*
X200004000Y-33334000D02*
G75*
G03X197623000Y-35715000I0J-2381000D01*
G01*
X176194000Y-35715000D02*
G75*
G03X173813000Y-33334000I-2381000J0D01*
G01*
X292863000Y-45239000D02*
G75*
G03X290482000Y-42858000I-2381000J0D01*
G01*
X233338000Y-42858000D02*
X290482000Y-42858000D01*
X78573000Y-42858000D02*
G75*
G03X76192000Y-45239000I0J-2381000D01*
G01*
X135717000Y-42858000D02*
X78573000Y-42858000D01*
X230957000Y-40477000D02*
G75*
G03X233338000Y-42858000I2381000J0D01*
G01*
X230957000Y-35715000D02*
G75*
G03X228576000Y-33334000I-2381000J0D01*
G01*
X135717000Y-42858000D02*
G75*
G03X138098000Y-40477000I0J2381000D01*
G01*
X140479000Y-33334000D02*
G75*
G03X138098000Y-35715000I0J-2381000D01*
G01*
X173813000Y-100002000D02*
G75*
G03X176194000Y-97621000I0J2381000D01*
G01*
X197623000Y-97621000D02*
G75*
G03X200004000Y-100002000I2381000J0D01*
G01*
X214290000Y-104764000D02*
X242862000Y-104764000D01*
X159527000Y-104764000D02*
X152384000Y-104764000D01*
X164289000Y-100002000D02*
X173813000Y-100002000D01*
X164289000Y-104764000D02*
X164289000Y-100002000D01*
X159527000Y-104764000D02*
X159527000Y-100002000D01*
X242862000Y-104764000D02*
X259529000Y-104764000D01*
X269053000Y-97621000D02*
X269053000Y-83335000D01*
X264291000Y-100002000D02*
X264291000Y-104764000D01*
X259529000Y-104764000D02*
X259529000Y-100002000D01*
X69049000Y-100002000D02*
X69049000Y-116669000D01*
X90478000Y-83335000D02*
X90478000Y-95240000D01*
X76192000Y-45239000D02*
X76192000Y-59525000D01*
X147622000Y-128574000D02*
X147622000Y-109526000D01*
X140479000Y-119050000D02*
X71430000Y-119050000D01*
X142860000Y-102383000D02*
X142860000Y-116669000D01*
X159527000Y-100002000D02*
X145241000Y-100002000D01*
X176194000Y-88097000D02*
X176194000Y-97621000D01*
X197623000Y-88097000D02*
X197623000Y-97621000D01*
X178575000Y-88097000D02*
X176194000Y-88097000D01*
X197623000Y-83335000D02*
X197623000Y-47620000D01*
X176194000Y-83335000D02*
X178575000Y-83335000D01*
X176194000Y-47620000D02*
X176194000Y-83335000D01*
X178575000Y-47620000D02*
X176194000Y-47620000D01*
X176194000Y-42858000D02*
X178575000Y-42858000D01*
X176194000Y-42858000D02*
X176194000Y-35715000D01*
X197623000Y-42858000D02*
X197623000Y-35715000D01*
X140479000Y-33334000D02*
X173813000Y-33334000D01*
X200004000Y-33334000D02*
X228576000Y-33334000D01*
X292863000Y-45239000D02*
X292863000Y-59525000D01*
X209528000Y-104764000D02*
X164289000Y-104764000D01*
X276196000Y-128574000D02*
X276196000Y-109526000D01*
X152384000Y-133336000D02*
X271434000Y-133336000D01*
X152384000Y-104764000D02*
G75*
G03X147622000Y-109526000I0J-4762000D01*
G01*
X147622000Y-128574000D02*
G75*
G03X152384000Y-133336000I4762000J0D01*
G01*
X276196000Y-109526000D02*
G75*
G03X271434000Y-104764000I-4762000J0D01*
G01*
X271434000Y-133336000D02*
G75*
G03X276196000Y-128574000I0J4762000D01*
G01*
M02*
